STARTFONT 2.1
FONT -memleek-leggie-medium-i-normal--12----c-60-CP437-0
SIZE 12 75 75
FONTBOUNDINGBOX 6 12 0 -2
COMMENT "Generated by fontforge, http://fontforge.sourceforge.net"
STARTPROPERTIES 18
AVERAGE_WIDTH 60
CAP_HEIGHT 7
CHARSET_ENCODING "0"
CHARSET_REGISTRY "CP437"
COMMENT "Please visit https://memleek.org/leggie"
COPYRIGHT "2012-2018 W. Kerr. Licensed under CC BY 4.0"
DEFAULT_CHAR 65535
FAMILY_NAME "leggie"
FONT "leggie"
FONT_ASCENT 10
FONT_DESCENT 2
FOUNDRY "memleek"
PIXEL_SIZE 12
SETWIDTH_NAME "Normal"
SLANT "I"
SPACING "C"
WEIGHT_NAME "Medium"
X_HEIGHT 5
ENDPROPERTIES
CHARS 565
STARTCHAR SPACE
ENCODING 32
SWIDTH 480 0
DWIDTH 6 0
BBX 1 1 5 -2
BITMAP
00
ENDCHAR
STARTCHAR EXCLAMATION
ENCODING 33
SWIDTH 480 0
DWIDTH 6 0
BBX 2 7 2 0
BITMAP
40
40
40
80
80
00
80
ENDCHAR
STARTCHAR QUOTATION
ENCODING 34
SWIDTH 480 0
DWIDTH 6 0
BBX 4 3 1 5
BITMAP
50
90
A0
ENDCHAR
STARTCHAR NUMBER
ENCODING 35
SWIDTH 480 0
DWIDTH 6 0
BBX 6 7 0 0
BITMAP
28
28
7C
48
F8
50
50
ENDCHAR
STARTCHAR DOLLAR
ENCODING 36
SWIDTH 480 0
DWIDTH 6 0
BBX 6 9 0 -1
BITMAP
08
3C
40
40
30
08
08
F0
40
ENDCHAR
STARTCHAR PERCENT
ENCODING 37
SWIDTH 480 0
DWIDTH 6 0
BBX 6 7 0 0
BITMAP
20
54
28
30
50
A8
10
ENDCHAR
STARTCHAR AMPERSAND
ENCODING 38
SWIDTH 480 0
DWIDTH 6 0
BBX 5 7 0 0
BITMAP
30
48
48
70
88
90
68
ENDCHAR
STARTCHAR APOSTROPHE
ENCODING 39
SWIDTH 480 0
DWIDTH 6 0
BBX 2 3 2 5
BITMAP
40
40
80
ENDCHAR
STARTCHAR LEFT
ENCODING 40
SWIDTH 480 0
DWIDTH 6 0
BBX 3 11 2 -2
BITMAP
20
40
40
40
40
80
80
80
80
80
40
ENDCHAR
STARTCHAR RIGHT
ENCODING 41
SWIDTH 480 0
DWIDTH 6 0
BBX 3 11 1 -2
BITMAP
40
20
20
20
20
40
40
40
40
40
80
ENDCHAR
STARTCHAR ASTERISK
ENCODING 42
SWIDTH 480 0
DWIDTH 6 0
BBX 6 5 0 1
BITMAP
28
10
FC
20
50
ENDCHAR
STARTCHAR PLUS
ENCODING 43
SWIDTH 480 0
DWIDTH 6 0
BBX 6 5 0 1
BITMAP
10
10
FC
20
20
ENDCHAR
STARTCHAR COMMA
ENCODING 44
SWIDTH 480 0
DWIDTH 6 0
BBX 2 2 1 -1
BITMAP
40
80
ENDCHAR
STARTCHAR HYPHEN-MINUS
ENCODING 45
SWIDTH 480 0
DWIDTH 6 0
BBX 6 1 0 3
BITMAP
FC
ENDCHAR
STARTCHAR FULL
ENCODING 46
SWIDTH 480 0
DWIDTH 6 0
BBX 1 1 2 0
BITMAP
80
ENDCHAR
STARTCHAR SOLIDUS
ENCODING 47
SWIDTH 480 0
DWIDTH 6 0
BBX 6 10 0 -2
BITMAP
04
04
08
10
10
20
20
40
80
80
ENDCHAR
STARTCHAR DIGIT
ENCODING 48
SWIDTH 480 0
DWIDTH 6 0
BBX 6 7 0 0
BITMAP
38
44
4C
B4
C8
88
70
ENDCHAR
STARTCHAR DIGIT
ENCODING 49
SWIDTH 480 0
DWIDTH 6 0
BBX 3 7 2 0
BITMAP
20
60
A0
20
40
40
40
ENDCHAR
STARTCHAR DIGIT
ENCODING 50
SWIDTH 480 0
DWIDTH 6 0
BBX 6 7 0 0
BITMAP
78
04
04
18
20
40
F8
ENDCHAR
STARTCHAR DIGIT
ENCODING 51
SWIDTH 480 0
DWIDTH 6 0
BBX 6 7 0 0
BITMAP
78
04
04
38
08
08
F0
ENDCHAR
STARTCHAR DIGIT
ENCODING 52
SWIDTH 480 0
DWIDTH 6 0
BBX 6 7 0 0
BITMAP
04
0C
34
44
F8
08
08
ENDCHAR
STARTCHAR DIGIT
ENCODING 53
SWIDTH 480 0
DWIDTH 6 0
BBX 6 7 0 0
BITMAP
3C
40
78
04
04
08
F0
ENDCHAR
STARTCHAR DIGIT
ENCODING 54
SWIDTH 480 0
DWIDTH 6 0
BBX 6 7 0 0
BITMAP
1C
20
78
44
84
88
70
ENDCHAR
STARTCHAR DIGIT
ENCODING 55
SWIDTH 480 0
DWIDTH 6 0
BBX 5 7 1 0
BITMAP
F8
08
50
20
50
40
40
ENDCHAR
STARTCHAR DIGIT
ENCODING 56
SWIDTH 480 0
DWIDTH 6 0
BBX 6 7 0 0
BITMAP
38
44
44
78
88
88
70
ENDCHAR
STARTCHAR DIGIT
ENCODING 57
SWIDTH 480 0
DWIDTH 6 0
BBX 6 7 0 0
BITMAP
38
44
84
88
78
10
E0
ENDCHAR
STARTCHAR COLON
ENCODING 58
SWIDTH 480 0
DWIDTH 6 0
BBX 2 5 2 0
BITMAP
40
00
00
00
80
ENDCHAR
STARTCHAR SEMICOLON
ENCODING 59
SWIDTH 480 0
DWIDTH 6 0
BBX 3 6 1 -1
BITMAP
20
00
00
00
40
80
ENDCHAR
STARTCHAR LESS-THAN
ENCODING 60
SWIDTH 480 0
DWIDTH 6 0
BBX 5 9 1 -1
BITMAP
08
10
20
40
80
80
40
20
10
ENDCHAR
STARTCHAR EQUALS
ENCODING 61
SWIDTH 480 0
DWIDTH 6 0
BBX 6 3 0 2
BITMAP
7C
00
F8
ENDCHAR
STARTCHAR GREATER-THAN
ENCODING 62
SWIDTH 480 0
DWIDTH 6 0
BBX 5 9 0 -1
BITMAP
40
20
10
08
08
10
20
40
80
ENDCHAR
STARTCHAR QUESTION
ENCODING 63
SWIDTH 480 0
DWIDTH 6 0
BBX 5 7 1 0
BITMAP
F0
08
08
30
40
00
40
ENDCHAR
STARTCHAR COMMERCIAL
ENCODING 64
SWIDTH 480 0
DWIDTH 6 0
BBX 6 8 0 -1
BITMAP
38
44
5C
64
C8
B0
80
70
ENDCHAR
STARTCHAR LATIN
ENCODING 65
SWIDTH 480 0
DWIDTH 6 0
BBX 6 7 0 0
BITMAP
38
44
44
44
F8
88
88
ENDCHAR
STARTCHAR LATIN
ENCODING 66
SWIDTH 480 0
DWIDTH 6 0
BBX 6 7 0 0
BITMAP
78
44
44
F8
88
88
F0
ENDCHAR
STARTCHAR LATIN
ENCODING 67
SWIDTH 480 0
DWIDTH 6 0
BBX 6 7 0 0
BITMAP
3C
40
40
80
80
80
78
ENDCHAR
STARTCHAR LATIN
ENCODING 68
SWIDTH 480 0
DWIDTH 6 0
BBX 6 7 0 0
BITMAP
78
44
44
84
88
88
F0
ENDCHAR
STARTCHAR LATIN
ENCODING 69
SWIDTH 480 0
DWIDTH 6 0
BBX 6 7 0 0
BITMAP
7C
40
40
F0
80
80
F8
ENDCHAR
STARTCHAR LATIN
ENCODING 70
SWIDTH 480 0
DWIDTH 6 0
BBX 6 7 0 0
BITMAP
7C
40
40
F0
80
80
80
ENDCHAR
STARTCHAR LATIN
ENCODING 71
SWIDTH 480 0
DWIDTH 6 0
BBX 6 7 0 0
BITMAP
3C
40
40
8C
88
88
78
ENDCHAR
STARTCHAR LATIN
ENCODING 72
SWIDTH 480 0
DWIDTH 6 0
BBX 6 7 0 0
BITMAP
44
44
44
FC
88
88
88
ENDCHAR
STARTCHAR LATIN
ENCODING 73
SWIDTH 480 0
DWIDTH 6 0
BBX 4 7 1 0
BITMAP
70
20
20
40
40
40
E0
ENDCHAR
STARTCHAR LATIN
ENCODING 74
SWIDTH 480 0
DWIDTH 6 0
BBX 6 7 0 0
BITMAP
04
04
04
08
08
88
70
ENDCHAR
STARTCHAR LATIN
ENCODING 75
SWIDTH 480 0
DWIDTH 6 0
BBX 6 7 0 0
BITMAP
44
48
50
E0
A0
90
88
ENDCHAR
STARTCHAR LATIN
ENCODING 76
SWIDTH 480 0
DWIDTH 6 0
BBX 5 7 0 0
BITMAP
40
40
40
80
80
80
F8
ENDCHAR
STARTCHAR LATIN
ENCODING 77
SWIDTH 480 0
DWIDTH 6 0
BBX 6 7 0 0
BITMAP
44
6C
54
84
88
88
88
ENDCHAR
STARTCHAR LATIN
ENCODING 78
SWIDTH 480 0
DWIDTH 6 0
BBX 6 7 0 0
BITMAP
44
44
64
94
88
88
88
ENDCHAR
STARTCHAR LATIN
ENCODING 79
SWIDTH 480 0
DWIDTH 6 0
BBX 6 7 0 0
BITMAP
38
44
44
84
88
88
70
ENDCHAR
STARTCHAR LATIN
ENCODING 80
SWIDTH 480 0
DWIDTH 6 0
BBX 6 7 0 0
BITMAP
78
44
44
88
F0
80
80
ENDCHAR
STARTCHAR LATIN
ENCODING 81
SWIDTH 480 0
DWIDTH 6 0
BBX 6 7 0 0
BITMAP
38
44
44
84
A8
90
68
ENDCHAR
STARTCHAR LATIN
ENCODING 82
SWIDTH 480 0
DWIDTH 6 0
BBX 6 7 0 0
BITMAP
78
44
44
88
F0
90
88
ENDCHAR
STARTCHAR LATIN
ENCODING 83
SWIDTH 480 0
DWIDTH 6 0
BBX 6 7 0 0
BITMAP
3C
40
40
30
08
08
F0
ENDCHAR
STARTCHAR LATIN
ENCODING 84
SWIDTH 480 0
DWIDTH 6 0
BBX 5 7 1 0
BITMAP
F8
20
20
40
40
40
40
ENDCHAR
STARTCHAR LATIN
ENCODING 85
SWIDTH 480 0
DWIDTH 6 0
BBX 6 7 0 0
BITMAP
44
44
44
84
88
88
70
ENDCHAR
STARTCHAR LATIN
ENCODING 86
SWIDTH 480 0
DWIDTH 6 0
BBX 5 7 1 0
BITMAP
88
88
88
90
90
A0
40
ENDCHAR
STARTCHAR LATIN
ENCODING 87
SWIDTH 480 0
DWIDTH 6 0
BBX 6 7 0 0
BITMAP
44
44
44
84
A8
D8
88
ENDCHAR
STARTCHAR LATIN
ENCODING 88
SWIDTH 480 0
DWIDTH 6 0
BBX 6 7 0 0
BITMAP
44
44
28
30
50
88
88
ENDCHAR
STARTCHAR LATIN
ENCODING 89
SWIDTH 480 0
DWIDTH 6 0
BBX 5 7 1 0
BITMAP
88
88
50
60
40
40
40
ENDCHAR
STARTCHAR LATIN
ENCODING 90
SWIDTH 480 0
DWIDTH 6 0
BBX 6 7 0 0
BITMAP
7C
04
08
30
40
80
F8
ENDCHAR
STARTCHAR LEFT
ENCODING 91
SWIDTH 480 0
DWIDTH 6 0
BBX 3 11 2 -2
BITMAP
60
40
40
40
40
80
80
80
80
80
C0
ENDCHAR
STARTCHAR REVERSE
ENCODING 92
SWIDTH 480 0
DWIDTH 6 0
BBX 4 10 1 -2
BITMAP
80
80
40
40
40
20
20
20
10
10
ENDCHAR
STARTCHAR RIGHT
ENCODING 93
SWIDTH 480 0
DWIDTH 6 0
BBX 3 11 1 -2
BITMAP
60
20
20
20
20
40
40
40
40
40
C0
ENDCHAR
STARTCHAR CIRCUMFLEX
ENCODING 94
SWIDTH 480 0
DWIDTH 6 0
BBX 4 3 1 5
BITMAP
30
50
90
ENDCHAR
STARTCHAR LOW
ENCODING 95
SWIDTH 480 0
DWIDTH 6 0
BBX 6 1 0 -1
BITMAP
FC
ENDCHAR
STARTCHAR GRAVE
ENCODING 96
SWIDTH 480 0
DWIDTH 6 0
BBX 2 3 2 5
BITMAP
80
40
40
ENDCHAR
STARTCHAR LATIN
ENCODING 97
SWIDTH 480 0
DWIDTH 6 0
BBX 6 5 0 0
BITMAP
3C
44
84
88
78
ENDCHAR
STARTCHAR LATIN
ENCODING 98
SWIDTH 480 0
DWIDTH 6 0
BBX 6 8 0 0
BITMAP
20
20
40
78
44
84
88
70
ENDCHAR
STARTCHAR LATIN
ENCODING 99
SWIDTH 480 0
DWIDTH 6 0
BBX 6 5 0 0
BITMAP
3C
40
80
80
78
ENDCHAR
STARTCHAR LATIN
ENCODING 100
SWIDTH 480 0
DWIDTH 6 0
BBX 6 8 0 0
BITMAP
04
04
04
3C
48
88
88
78
ENDCHAR
STARTCHAR LATIN
ENCODING 101
SWIDTH 480 0
DWIDTH 6 0
BBX 6 5 0 0
BITMAP
38
44
F8
80
70
ENDCHAR
STARTCHAR LATIN
ENCODING 102
SWIDTH 480 0
DWIDTH 6 0
BBX 6 10 0 -2
BITMAP
0C
10
10
10
78
20
20
20
20
C0
ENDCHAR
STARTCHAR LATIN
ENCODING 103
SWIDTH 480 0
DWIDTH 6 0
BBX 6 7 0 -2
BITMAP
38
44
84
88
78
08
70
ENDCHAR
STARTCHAR LATIN
ENCODING 104
SWIDTH 480 0
DWIDTH 6 0
BBX 6 8 0 0
BITMAP
20
20
40
78
44
84
88
88
ENDCHAR
STARTCHAR LATIN
ENCODING 105
SWIDTH 480 0
DWIDTH 6 0
BBX 3 8 2 0
BITMAP
20
00
00
40
40
80
80
40
ENDCHAR
STARTCHAR LATIN
ENCODING 106
SWIDTH 480 0
DWIDTH 6 0
BBX 4 10 1 -2
BITMAP
10
00
00
20
20
40
40
40
40
80
ENDCHAR
STARTCHAR LATIN
ENCODING 107
SWIDTH 480 0
DWIDTH 6 0
BBX 5 8 1 0
BITMAP
20
20
40
48
50
E0
A0
90
ENDCHAR
STARTCHAR LATIN
ENCODING 108
SWIDTH 480 0
DWIDTH 6 0
BBX 3 8 1 0
BITMAP
20
20
40
40
40
80
80
60
ENDCHAR
STARTCHAR LATIN
ENCODING 109
SWIDTH 480 0
DWIDTH 6 0
BBX 6 5 0 0
BITMAP
68
54
A4
A8
88
ENDCHAR
STARTCHAR LATIN
ENCODING 110
SWIDTH 480 0
DWIDTH 6 0
BBX 6 5 0 0
BITMAP
78
44
84
88
88
ENDCHAR
STARTCHAR LATIN
ENCODING 111
SWIDTH 480 0
DWIDTH 6 0
BBX 6 5 0 0
BITMAP
38
44
84
88
70
ENDCHAR
STARTCHAR LATIN
ENCODING 112
SWIDTH 480 0
DWIDTH 6 0
BBX 6 7 0 -2
BITMAP
78
44
44
88
F0
80
80
ENDCHAR
STARTCHAR LATIN
ENCODING 113
SWIDTH 480 0
DWIDTH 6 0
BBX 6 7 0 -2
BITMAP
3C
44
84
88
78
08
08
ENDCHAR
STARTCHAR LATIN
ENCODING 114
SWIDTH 480 0
DWIDTH 6 0
BBX 6 5 0 0
BITMAP
5C
60
80
80
80
ENDCHAR
STARTCHAR LATIN
ENCODING 115
SWIDTH 480 0
DWIDTH 6 0
BBX 6 5 0 0
BITMAP
3C
40
30
08
F0
ENDCHAR
STARTCHAR LATIN
ENCODING 116
SWIDTH 480 0
DWIDTH 6 0
BBX 3 8 1 0
BITMAP
20
20
40
E0
40
80
80
60
ENDCHAR
STARTCHAR LATIN
ENCODING 117
SWIDTH 480 0
DWIDTH 6 0
BBX 6 5 0 0
BITMAP
44
44
84
88
78
ENDCHAR
STARTCHAR LATIN
ENCODING 118
SWIDTH 480 0
DWIDTH 6 0
BBX 5 5 1 0
BITMAP
88
88
90
A0
40
ENDCHAR
STARTCHAR LATIN
ENCODING 119
SWIDTH 480 0
DWIDTH 6 0
BBX 6 5 0 0
BITMAP
44
44
A4
D8
88
ENDCHAR
STARTCHAR LATIN
ENCODING 120
SWIDTH 480 0
DWIDTH 6 0
BBX 6 5 0 0
BITMAP
44
28
30
50
88
ENDCHAR
STARTCHAR LATIN
ENCODING 121
SWIDTH 480 0
DWIDTH 6 0
BBX 6 7 0 -2
BITMAP
44
44
84
88
78
08
70
ENDCHAR
STARTCHAR LATIN
ENCODING 122
SWIDTH 480 0
DWIDTH 6 0
BBX 6 5 0 0
BITMAP
7C
08
30
40
F8
ENDCHAR
STARTCHAR LEFT
ENCODING 123
SWIDTH 480 0
DWIDTH 6 0
BBX 4 11 1 -2
BITMAP
10
20
20
20
20
C0
40
40
40
40
20
ENDCHAR
STARTCHAR VERTICAL
ENCODING 124
SWIDTH 480 0
DWIDTH 6 0
BBX 2 12 2 -2
BITMAP
40
40
40
40
40
40
80
80
80
80
80
80
ENDCHAR
STARTCHAR RIGHT
ENCODING 125
SWIDTH 480 0
DWIDTH 6 0
BBX 4 11 1 -2
BITMAP
40
20
20
20
20
30
40
40
40
40
80
ENDCHAR
STARTCHAR TILDE
ENCODING 126
SWIDTH 480 0
DWIDTH 6 0
BBX 6 2 0 2
BITMAP
24
D8
ENDCHAR
STARTCHAR LATIN
ENCODING 128
SWIDTH 480 0
DWIDTH 6 0
BBX 6 9 0 -2
BITMAP
3C
40
40
80
80
80
78
20
40
ENDCHAR
STARTCHAR LATIN
ENCODING 129
SWIDTH 480 0
DWIDTH 6 0
BBX 6 8 0 0
BITMAP
14
00
00
44
44
84
88
78
ENDCHAR
STARTCHAR LATIN
ENCODING 130
SWIDTH 480 0
DWIDTH 6 0
BBX 6 9 0 0
BITMAP
04
08
00
00
38
44
F8
80
70
ENDCHAR
STARTCHAR LATIN
ENCODING 131
SWIDTH 480 0
DWIDTH 6 0
BBX 6 9 0 0
BITMAP
08
14
00
00
3C
44
84
88
78
ENDCHAR
STARTCHAR LATIN
ENCODING 132
SWIDTH 480 0
DWIDTH 6 0
BBX 6 8 0 0
BITMAP
14
00
00
3C
44
84
88
78
ENDCHAR
STARTCHAR LATIN
ENCODING 133
SWIDTH 480 0
DWIDTH 6 0
BBX 6 9 0 0
BITMAP
10
08
00
00
3C
44
84
88
78
ENDCHAR
STARTCHAR LATIN
ENCODING 134
SWIDTH 480 0
DWIDTH 6 0
BBX 6 10 0 0
BITMAP
08
14
08
00
00
3C
44
84
88
78
ENDCHAR
STARTCHAR LATIN
ENCODING 135
SWIDTH 480 0
DWIDTH 6 0
BBX 6 7 0 -2
BITMAP
3C
40
80
80
78
20
40
ENDCHAR
STARTCHAR LATIN
ENCODING 136
SWIDTH 480 0
DWIDTH 6 0
BBX 6 9 0 0
BITMAP
08
14
00
00
38
44
F8
80
70
ENDCHAR
STARTCHAR LATIN
ENCODING 137
SWIDTH 480 0
DWIDTH 6 0
BBX 6 8 0 0
BITMAP
14
00
00
38
44
F8
80
70
ENDCHAR
STARTCHAR LATIN
ENCODING 138
SWIDTH 480 0
DWIDTH 6 0
BBX 6 9 0 0
BITMAP
10
08
00
00
38
44
F8
80
70
ENDCHAR
STARTCHAR LATIN
ENCODING 139
SWIDTH 480 0
DWIDTH 6 0
BBX 4 8 2 0
BITMAP
50
00
00
40
40
80
80
40
ENDCHAR
STARTCHAR LATIN
ENCODING 140
SWIDTH 480 0
DWIDTH 6 0
BBX 4 9 2 0
BITMAP
20
50
00
00
40
40
80
80
40
ENDCHAR
STARTCHAR LATIN
ENCODING 141
SWIDTH 480 0
DWIDTH 6 0
BBX 3 9 2 0
BITMAP
40
20
00
00
40
40
80
80
40
ENDCHAR
STARTCHAR LATIN
ENCODING 142
SWIDTH 480 0
DWIDTH 6 0
BBX 6 10 0 0
BITMAP
14
00
00
38
44
44
44
F8
88
88
ENDCHAR
STARTCHAR LATIN
ENCODING 143
SWIDTH 480 0
DWIDTH 6 0
BBX 6 10 0 0
BITMAP
08
14
08
38
44
44
44
F8
88
88
ENDCHAR
STARTCHAR LATIN
ENCODING 144
SWIDTH 480 0
DWIDTH 6 0
BBX 6 10 0 0
BITMAP
08
10
00
7C
40
40
F0
80
80
F8
ENDCHAR
STARTCHAR LATIN
ENCODING 145
SWIDTH 480 0
DWIDTH 6 0
BBX 6 5 0 0
BITMAP
38
54
98
A0
78
ENDCHAR
STARTCHAR LATIN
ENCODING 146
SWIDTH 480 0
DWIDTH 6 0
BBX 6 7 0 0
BITMAP
3C
50
50
58
E0
A0
B8
ENDCHAR
STARTCHAR LATIN
ENCODING 147
SWIDTH 480 0
DWIDTH 6 0
BBX 6 9 0 0
BITMAP
08
14
00
00
38
44
84
88
70
ENDCHAR
STARTCHAR LATIN
ENCODING 148
SWIDTH 480 0
DWIDTH 6 0
BBX 6 8 0 0
BITMAP
14
00
00
38
44
84
88
70
ENDCHAR
STARTCHAR LATIN
ENCODING 149
SWIDTH 480 0
DWIDTH 6 0
BBX 6 9 0 0
BITMAP
10
08
00
00
38
44
84
88
70
ENDCHAR
STARTCHAR LATIN
ENCODING 150
SWIDTH 480 0
DWIDTH 6 0
BBX 6 9 0 0
BITMAP
08
14
00
00
44
44
84
88
78
ENDCHAR
STARTCHAR LATIN
ENCODING 151
SWIDTH 480 0
DWIDTH 6 0
BBX 6 9 0 0
BITMAP
10
08
00
00
44
44
84
88
78
ENDCHAR
STARTCHAR LATIN
ENCODING 152
SWIDTH 480 0
DWIDTH 6 0
BBX 6 10 0 -2
BITMAP
14
00
00
44
44
84
88
78
08
70
ENDCHAR
STARTCHAR LATIN
ENCODING 153
SWIDTH 480 0
DWIDTH 6 0
BBX 6 10 0 0
BITMAP
14
00
00
38
44
44
84
88
88
70
ENDCHAR
STARTCHAR LATIN
ENCODING 154
SWIDTH 480 0
DWIDTH 6 0
BBX 6 10 0 0
BITMAP
14
00
00
44
44
44
88
88
88
70
ENDCHAR
STARTCHAR CENT
ENCODING 155
SWIDTH 480 0
DWIDTH 6 0
BBX 6 7 0 -1
BITMAP
08
3C
40
80
80
78
20
ENDCHAR
STARTCHAR POUND
ENCODING 156
SWIDTH 480 0
DWIDTH 6 0
BBX 5 7 0 0
BITMAP
18
20
20
F0
40
40
F8
ENDCHAR
STARTCHAR YEN
ENCODING 157
SWIDTH 480 0
DWIDTH 6 0
BBX 5 7 1 0
BITMAP
88
88
50
60
F0
40
40
ENDCHAR
STARTCHAR LATIN
ENCODING 160
SWIDTH 480 0
DWIDTH 6 0
BBX 6 9 0 0
BITMAP
04
08
00
00
3C
44
84
88
78
ENDCHAR
STARTCHAR LATIN
ENCODING 161
SWIDTH 480 0
DWIDTH 6 0
BBX 4 9 2 0
BITMAP
10
20
00
00
40
40
80
80
40
ENDCHAR
STARTCHAR LATIN
ENCODING 162
SWIDTH 480 0
DWIDTH 6 0
BBX 6 9 0 0
BITMAP
04
08
00
00
38
44
84
88
70
ENDCHAR
STARTCHAR LATIN
ENCODING 163
SWIDTH 480 0
DWIDTH 6 0
BBX 6 9 0 0
BITMAP
04
08
00
00
44
44
84
88
78
ENDCHAR
STARTCHAR LATIN
ENCODING 164
SWIDTH 480 0
DWIDTH 6 0
BBX 6 9 0 0
BITMAP
14
28
00
00
78
44
84
88
88
ENDCHAR
STARTCHAR LATIN
ENCODING 165
SWIDTH 480 0
DWIDTH 6 0
BBX 6 10 0 0
BITMAP
14
28
00
44
44
64
94
88
88
88
ENDCHAR
STARTCHAR FEMININE
ENCODING 166
SWIDTH 480 0
DWIDTH 6 0
BBX 6 5 0 3
BITMAP
3C
44
84
88
78
ENDCHAR
STARTCHAR MASCULINE
ENCODING 167
SWIDTH 480 0
DWIDTH 6 0
BBX 6 5 0 3
BITMAP
38
44
84
88
70
ENDCHAR
STARTCHAR INVERTED
ENCODING 168
SWIDTH 480 0
DWIDTH 6 0
BBX 5 7 0 -2
BITMAP
10
00
10
60
80
80
78
ENDCHAR
STARTCHAR NOT
ENCODING 170
SWIDTH 480 0
DWIDTH 6 0
BBX 6 2 0 2
BITMAP
FC
08
ENDCHAR
STARTCHAR VULGAR
ENCODING 171
SWIDTH 480 0
DWIDTH 6 0
BBX 5 11 1 -2
BITMAP
40
C0
40
80
80
F0
08
08
30
40
F0
ENDCHAR
STARTCHAR VULGAR
ENCODING 172
SWIDTH 480 0
DWIDTH 6 0
BBX 5 11 1 -2
BITMAP
40
C0
40
80
80
88
38
48
F0
10
10
ENDCHAR
STARTCHAR INVERTED
ENCODING 173
SWIDTH 480 0
DWIDTH 6 0
BBX 2 7 2 -2
BITMAP
40
00
40
40
80
80
80
ENDCHAR
STARTCHAR LEFT-POINTING
ENCODING 174
SWIDTH 480 0
DWIDTH 6 0
BBX 6 5 0 1
BITMAP
14
28
F0
50
28
ENDCHAR
STARTCHAR RIGHT-POINTING
ENCODING 175
SWIDTH 480 0
DWIDTH 6 0
BBX 6 5 0 1
BITMAP
50
28
3C
50
A0
ENDCHAR
STARTCHAR GREEK
ENCODING 224
SWIDTH 480 0
DWIDTH 6 0
BBX 6 5 0 0
BITMAP
34
48
88
90
68
ENDCHAR
STARTCHAR LATIN
ENCODING 225
SWIDTH 480 0
DWIDTH 6 0
BBX 5 8 0 0
BITMAP
30
48
48
50
50
88
88
B0
ENDCHAR
STARTCHAR GREEK
ENCODING 226
SWIDTH 480 0
DWIDTH 6 0
BBX 6 7 0 0
BITMAP
7C
40
40
80
80
80
80
ENDCHAR
STARTCHAR GREEK
ENCODING 227
SWIDTH 480 0
DWIDTH 6 0
BBX 6 5 0 0
BITMAP
7C
28
48
50
88
ENDCHAR
STARTCHAR GREEK
ENCODING 228
SWIDTH 480 0
DWIDTH 6 0
BBX 6 7 0 0
BITMAP
7C
40
20
30
40
80
F8
ENDCHAR
STARTCHAR GREEK
ENCODING 229
SWIDTH 480 0
DWIDTH 6 0
BBX 6 5 0 0
BITMAP
3C
48
84
88
70
ENDCHAR
STARTCHAR MICRO
ENCODING 230
SWIDTH 480 0
DWIDTH 6 0
BBX 6 7 0 -2
BITMAP
44
44
84
88
F0
80
80
ENDCHAR
STARTCHAR GREEK
ENCODING 231
SWIDTH 480 0
DWIDTH 6 0
BBX 5 5 1 0
BITMAP
F8
20
40
40
20
ENDCHAR
STARTCHAR GREEK
ENCODING 232
SWIDTH 480 0
DWIDTH 6 0
BBX 6 7 0 0
BITMAP
10
38
54
B4
A8
70
20
ENDCHAR
STARTCHAR GREEK
ENCODING 233
SWIDTH 480 0
DWIDTH 6 0
BBX 6 7 0 0
BITMAP
38
44
44
FC
88
88
70
ENDCHAR
STARTCHAR GREEK
ENCODING 234
SWIDTH 480 0
DWIDTH 6 0
BBX 6 7 0 0
BITMAP
38
44
44
84
88
50
D8
ENDCHAR
STARTCHAR GREEK
ENCODING 235
SWIDTH 480 0
DWIDTH 6 0
BBX 6 8 0 0
BITMAP
1C
20
10
38
44
84
88
70
ENDCHAR
STARTCHAR GREEK
ENCODING 237
SWIDTH 480 0
DWIDTH 6 0
BBX 6 7 0 -2
BITMAP
08
54
94
A8
70
20
20
ENDCHAR
STARTCHAR GREEK
ENCODING 238
SWIDTH 480 0
DWIDTH 6 0
BBX 6 5 0 0
BITMAP
3C
40
70
80
78
ENDCHAR
STARTCHAR PLUS-MINUS
ENCODING 241
SWIDTH 480 0
DWIDTH 6 0
BBX 6 7 0 0
BITMAP
10
10
FC
20
20
00
F8
ENDCHAR
STARTCHAR DIVISION
ENCODING 246
SWIDTH 480 0
DWIDTH 6 0
BBX 6 5 0 1
BITMAP
10
00
FC
00
20
ENDCHAR
STARTCHAR DEGREE
ENCODING 248
SWIDTH 480 0
DWIDTH 6 0
BBX 4 3 1 4
BITMAP
60
90
60
ENDCHAR
STARTCHAR MIDDLE
ENCODING 250
SWIDTH 480 0
DWIDTH 6 0
BBX 1 1 2 3
BITMAP
80
ENDCHAR
STARTCHAR SUPERSCRIPT
ENCODING 253
SWIDTH 480 0
DWIDTH 6 0
BBX 6 7 0 3
BITMAP
78
04
04
18
20
40
F8
ENDCHAR
STARTCHAR NO-BREAK
ENCODING 255
SWIDTH 480 0
DWIDTH 6 0
BBX 1 1 5 -2
BITMAP
00
ENDCHAR
STARTCHAR CURRENCY
ENCODING -1
SWIDTH 480 0
DWIDTH 6 0
BBX 6 5 0 1
BITMAP
44
38
48
70
88
ENDCHAR
STARTCHAR BROKEN
ENCODING -1
SWIDTH 480 0
DWIDTH 6 0
BBX 2 12 2 -2
BITMAP
40
40
40
40
40
00
00
80
80
80
80
80
ENDCHAR
STARTCHAR SECTION
ENCODING -1
SWIDTH 480 0
DWIDTH 6 0
BBX 6 11 0 -2
BITMAP
3C
40
40
38
44
84
88
70
08
08
F0
ENDCHAR
STARTCHAR DIAERESIS
ENCODING -1
SWIDTH 480 0
DWIDTH 6 0
BBX 4 1 1 8
BITMAP
90
ENDCHAR
STARTCHAR COPYRIGHT
ENCODING -1
SWIDTH 480 0
DWIDTH 6 0
BBX 6 8 0 -1
BITMAP
38
44
5C
A4
C4
B8
88
70
ENDCHAR
STARTCHAR SOFT
ENCODING -1
SWIDTH 480 0
DWIDTH 6 0
BBX 4 1 1 3
BITMAP
F0
ENDCHAR
STARTCHAR REGISTERED
ENCODING -1
SWIDTH 480 0
DWIDTH 6 0
BBX 6 8 0 2
BITMAP
38
44
74
AC
F4
D8
88
70
ENDCHAR
STARTCHAR MACRON
ENCODING -1
SWIDTH 480 0
DWIDTH 6 0
BBX 6 1 0 7
BITMAP
FC
ENDCHAR
STARTCHAR SUPERSCRIPT
ENCODING -1
SWIDTH 480 0
DWIDTH 6 0
BBX 6 7 0 3
BITMAP
78
04
04
38
08
08
F0
ENDCHAR
STARTCHAR ACUTE
ENCODING -1
SWIDTH 480 0
DWIDTH 6 0
BBX 4 3 1 5
BITMAP
10
60
80
ENDCHAR
STARTCHAR PILCROW
ENCODING -1
SWIDTH 480 0
DWIDTH 6 0
BBX 5 8 1 0
BITMAP
78
E8
E8
E8
C8
50
50
50
ENDCHAR
STARTCHAR CEDILLA
ENCODING -1
SWIDTH 480 0
DWIDTH 6 0
BBX 2 2 1 -2
BITMAP
40
80
ENDCHAR
STARTCHAR SUPERSCRIPT
ENCODING -1
SWIDTH 480 0
DWIDTH 6 0
BBX 3 7 2 3
BITMAP
20
60
A0
20
40
40
40
ENDCHAR
STARTCHAR VULGAR
ENCODING -1
SWIDTH 480 0
DWIDTH 6 0
BBX 6 11 0 -2
BITMAP
70
08
70
10
10
E4
1C
24
78
08
08
ENDCHAR
STARTCHAR LATIN
ENCODING -1
SWIDTH 480 0
DWIDTH 6 0
BBX 6 10 0 0
BITMAP
20
10
00
38
44
44
44
F8
88
88
ENDCHAR
STARTCHAR LATIN
ENCODING -1
SWIDTH 480 0
DWIDTH 6 0
BBX 6 10 0 0
BITMAP
04
08
00
38
44
44
44
F8
88
88
ENDCHAR
STARTCHAR LATIN
ENCODING -1
SWIDTH 480 0
DWIDTH 6 0
BBX 6 10 0 0
BITMAP
08
14
00
38
44
44
44
F8
88
88
ENDCHAR
STARTCHAR LATIN
ENCODING -1
SWIDTH 480 0
DWIDTH 6 0
BBX 6 10 0 0
BITMAP
14
28
00
38
44
44
44
F8
88
88
ENDCHAR
STARTCHAR LATIN
ENCODING -1
SWIDTH 480 0
DWIDTH 6 0
BBX 6 10 0 0
BITMAP
20
10
00
7C
40
40
F0
80
80
F8
ENDCHAR
STARTCHAR LATIN
ENCODING -1
SWIDTH 480 0
DWIDTH 6 0
BBX 6 10 0 0
BITMAP
10
28
00
7C
40
40
F0
80
80
F8
ENDCHAR
STARTCHAR LATIN
ENCODING -1
SWIDTH 480 0
DWIDTH 6 0
BBX 6 10 0 0
BITMAP
14
00
00
7C
40
40
F0
80
80
F8
ENDCHAR
STARTCHAR LATIN
ENCODING -1
SWIDTH 480 0
DWIDTH 6 0
BBX 4 10 1 0
BITMAP
40
20
00
70
20
20
40
40
40
E0
ENDCHAR
STARTCHAR LATIN
ENCODING -1
SWIDTH 480 0
DWIDTH 6 0
BBX 5 10 1 0
BITMAP
08
10
00
70
20
20
40
40
40
E0
ENDCHAR
STARTCHAR LATIN
ENCODING -1
SWIDTH 480 0
DWIDTH 6 0
BBX 4 10 1 0
BITMAP
20
50
00
70
20
20
40
40
40
E0
ENDCHAR
STARTCHAR LATIN
ENCODING -1
SWIDTH 480 0
DWIDTH 6 0
BBX 5 10 1 0
BITMAP
28
00
00
70
20
20
40
40
40
E0
ENDCHAR
STARTCHAR LATIN
ENCODING -1
SWIDTH 480 0
DWIDTH 6 0
BBX 6 7 0 0
BITMAP
78
44
44
E4
88
88
F0
ENDCHAR
STARTCHAR LATIN
ENCODING -1
SWIDTH 480 0
DWIDTH 6 0
BBX 6 10 0 0
BITMAP
20
10
00
38
44
44
84
88
88
70
ENDCHAR
STARTCHAR LATIN
ENCODING -1
SWIDTH 480 0
DWIDTH 6 0
BBX 6 10 0 0
BITMAP
04
08
00
38
44
44
84
88
88
70
ENDCHAR
STARTCHAR LATIN
ENCODING -1
SWIDTH 480 0
DWIDTH 6 0
BBX 6 10 0 0
BITMAP
08
14
00
38
44
44
84
88
88
70
ENDCHAR
STARTCHAR LATIN
ENCODING -1
SWIDTH 480 0
DWIDTH 6 0
BBX 6 10 0 0
BITMAP
14
28
00
38
44
44
84
88
88
70
ENDCHAR
STARTCHAR MULTIPLICATION
ENCODING -1
SWIDTH 480 0
DWIDTH 6 0
BBX 6 5 0 1
BITMAP
44
28
30
50
88
ENDCHAR
STARTCHAR LATIN
ENCODING -1
SWIDTH 480 0
DWIDTH 6 0
BBX 6 7 0 0
BITMAP
3C
4C
4C
B4
C8
C8
F0
ENDCHAR
STARTCHAR LATIN
ENCODING -1
SWIDTH 480 0
DWIDTH 6 0
BBX 6 10 0 0
BITMAP
20
10
00
44
44
44
88
88
88
70
ENDCHAR
STARTCHAR LATIN
ENCODING -1
SWIDTH 480 0
DWIDTH 6 0
BBX 6 10 0 0
BITMAP
08
10
00
44
44
44
88
88
88
70
ENDCHAR
STARTCHAR LATIN
ENCODING -1
SWIDTH 480 0
DWIDTH 6 0
BBX 6 10 0 0
BITMAP
10
28
00
44
44
44
88
88
88
70
ENDCHAR
STARTCHAR LATIN
ENCODING -1
SWIDTH 480 0
DWIDTH 6 0
BBX 5 10 1 0
BITMAP
10
20
00
88
88
50
60
40
40
40
ENDCHAR
STARTCHAR LATIN
ENCODING -1
SWIDTH 480 0
DWIDTH 6 0
BBX 6 7 0 0
BITMAP
40
78
44
84
88
F0
80
ENDCHAR
STARTCHAR LATIN
ENCODING -1
SWIDTH 480 0
DWIDTH 6 0
BBX 6 9 0 0
BITMAP
14
28
00
00
3C
44
84
88
78
ENDCHAR
STARTCHAR LATIN
ENCODING -1
SWIDTH 480 0
DWIDTH 6 0
BBX 6 9 0 0
BITMAP
28
10
28
04
3C
44
84
88
70
ENDCHAR
STARTCHAR LATIN
ENCODING -1
SWIDTH 480 0
DWIDTH 6 0
BBX 6 9 0 0
BITMAP
14
28
00
00
38
44
84
88
70
ENDCHAR
STARTCHAR LATIN
ENCODING -1
SWIDTH 480 0
DWIDTH 6 0
BBX 6 5 0 0
BITMAP
3C
4C
B4
C8
F0
ENDCHAR
STARTCHAR LATIN
ENCODING -1
SWIDTH 480 0
DWIDTH 6 0
BBX 6 11 0 -2
BITMAP
04
08
00
00
44
44
84
88
78
08
70
ENDCHAR
STARTCHAR LATIN
ENCODING -1
SWIDTH 480 0
DWIDTH 6 0
BBX 6 9 0 -2
BITMAP
40
40
78
44
84
88
F0
80
80
ENDCHAR
STARTCHAR LATIN
ENCODING -1
SWIDTH 480 0
DWIDTH 6 0
BBX 6 10 0 0
BITMAP
3C
00
00
38
44
44
44
F8
88
88
ENDCHAR
STARTCHAR LATIN
ENCODING -1
SWIDTH 480 0
DWIDTH 6 0
BBX 6 8 0 0
BITMAP
3C
00
00
3C
44
84
88
78
ENDCHAR
STARTCHAR LATIN
ENCODING -1
SWIDTH 480 0
DWIDTH 6 0
BBX 6 10 0 0
BITMAP
24
18
00
38
44
44
44
F8
88
88
ENDCHAR
STARTCHAR LATIN
ENCODING -1
SWIDTH 480 0
DWIDTH 6 0
BBX 6 9 0 0
BITMAP
24
18
00
00
3C
44
84
88
78
ENDCHAR
STARTCHAR LATIN
ENCODING -1
SWIDTH 480 0
DWIDTH 6 0
BBX 6 9 0 -2
BITMAP
38
44
44
44
F8
88
88
08
04
ENDCHAR
STARTCHAR LATIN
ENCODING -1
SWIDTH 480 0
DWIDTH 6 0
BBX 6 7 0 -2
BITMAP
3C
44
84
88
78
08
04
ENDCHAR
STARTCHAR LATIN
ENCODING -1
SWIDTH 480 0
DWIDTH 6 0
BBX 6 10 0 0
BITMAP
04
08
00
3C
40
40
80
80
80
78
ENDCHAR
STARTCHAR LATIN
ENCODING -1
SWIDTH 480 0
DWIDTH 6 0
BBX 6 9 0 0
BITMAP
04
08
00
00
3C
40
80
80
78
ENDCHAR
STARTCHAR LATIN
ENCODING -1
SWIDTH 480 0
DWIDTH 6 0
BBX 6 10 0 0
BITMAP
08
14
00
3C
40
40
80
80
80
78
ENDCHAR
STARTCHAR LATIN
ENCODING -1
SWIDTH 480 0
DWIDTH 6 0
BBX 6 9 0 0
BITMAP
08
14
00
00
3C
40
80
80
78
ENDCHAR
STARTCHAR LATIN
ENCODING -1
SWIDTH 480 0
DWIDTH 6 0
BBX 6 10 0 0
BITMAP
08
00
00
3C
40
40
80
80
80
78
ENDCHAR
STARTCHAR LATIN
ENCODING -1
SWIDTH 480 0
DWIDTH 6 0
BBX 6 8 0 0
BITMAP
08
00
00
3C
40
80
80
78
ENDCHAR
STARTCHAR LATIN
ENCODING -1
SWIDTH 480 0
DWIDTH 6 0
BBX 6 10 0 0
BITMAP
14
08
00
3C
40
40
80
80
80
78
ENDCHAR
STARTCHAR LATIN
ENCODING -1
SWIDTH 480 0
DWIDTH 6 0
BBX 6 9 0 0
BITMAP
14
08
00
00
3C
40
80
80
78
ENDCHAR
STARTCHAR LATIN
ENCODING -1
SWIDTH 480 0
DWIDTH 6 0
BBX 6 10 0 0
BITMAP
28
10
00
78
44
44
84
88
88
F0
ENDCHAR
STARTCHAR LATIN
ENCODING -1
SWIDTH 480 0
DWIDTH 6 0
BBX 6 10 0 0
BITMAP
04
08
00
04
04
3C
44
88
88
78
ENDCHAR
STARTCHAR LATIN
ENCODING -1
SWIDTH 480 0
DWIDTH 6 0
BBX 6 7 0 0
BITMAP
78
44
44
E4
88
88
F0
ENDCHAR
STARTCHAR LATIN
ENCODING -1
SWIDTH 480 0
DWIDTH 6 0
BBX 6 8 0 0
BITMAP
04
1C
04
3C
48
88
88
78
ENDCHAR
STARTCHAR LATIN
ENCODING -1
SWIDTH 480 0
DWIDTH 6 0
BBX 6 10 0 0
BITMAP
3C
00
00
7C
40
40
F0
80
80
F8
ENDCHAR
STARTCHAR LATIN
ENCODING -1
SWIDTH 480 0
DWIDTH 6 0
BBX 6 8 0 0
BITMAP
3C
00
00
38
44
F8
80
70
ENDCHAR
STARTCHAR LATIN
ENCODING -1
SWIDTH 480 0
DWIDTH 6 0
BBX 6 10 0 0
BITMAP
08
00
00
7C
40
40
F0
80
80
F8
ENDCHAR
STARTCHAR LATIN
ENCODING -1
SWIDTH 480 0
DWIDTH 6 0
BBX 6 8 0 0
BITMAP
08
00
00
38
44
F8
80
70
ENDCHAR
STARTCHAR LATIN
ENCODING -1
SWIDTH 480 0
DWIDTH 6 0
BBX 6 9 0 -2
BITMAP
7C
40
40
F0
80
80
F8
08
04
ENDCHAR
STARTCHAR LATIN
ENCODING -1
SWIDTH 480 0
DWIDTH 6 0
BBX 6 7 0 -2
BITMAP
38
44
F8
80
70
10
08
ENDCHAR
STARTCHAR LATIN
ENCODING -1
SWIDTH 480 0
DWIDTH 6 0
BBX 6 10 0 0
BITMAP
28
10
00
7C
40
40
F0
80
80
F8
ENDCHAR
STARTCHAR LATIN
ENCODING -1
SWIDTH 480 0
DWIDTH 6 0
BBX 6 9 0 0
BITMAP
14
08
00
00
38
44
F8
80
70
ENDCHAR
STARTCHAR LATIN
ENCODING -1
SWIDTH 480 0
DWIDTH 6 0
BBX 6 10 0 0
BITMAP
08
14
00
3C
40
40
8C
88
88
78
ENDCHAR
STARTCHAR LATIN
ENCODING -1
SWIDTH 480 0
DWIDTH 6 0
BBX 6 11 0 -2
BITMAP
08
14
00
00
38
44
84
88
78
08
70
ENDCHAR
STARTCHAR LATIN
ENCODING -1
SWIDTH 480 0
DWIDTH 6 0
BBX 6 10 0 0
BITMAP
24
18
00
3C
40
40
8C
88
88
78
ENDCHAR
STARTCHAR LATIN
ENCODING -1
SWIDTH 480 0
DWIDTH 6 0
BBX 6 11 0 -2
BITMAP
24
18
00
00
38
44
84
88
78
08
70
ENDCHAR
STARTCHAR LATIN
ENCODING -1
SWIDTH 480 0
DWIDTH 6 0
BBX 6 10 0 0
BITMAP
08
00
00
3C
40
40
8C
88
88
78
ENDCHAR
STARTCHAR LATIN
ENCODING -1
SWIDTH 480 0
DWIDTH 6 0
BBX 6 10 0 -2
BITMAP
08
00
00
38
44
84
8C
78
08
70
ENDCHAR
STARTCHAR LATIN
ENCODING -1
SWIDTH 480 0
DWIDTH 6 0
BBX 6 9 0 -2
BITMAP
3C
40
40
8C
88
88
78
20
40
ENDCHAR
STARTCHAR LATIN
ENCODING -1
SWIDTH 480 0
DWIDTH 6 0
BBX 6 11 0 -2
BITMAP
04
08
00
00
38
44
84
88
78
08
70
ENDCHAR
STARTCHAR LATIN
ENCODING -1
SWIDTH 480 0
DWIDTH 6 0
BBX 6 10 0 0
BITMAP
10
28
00
44
44
44
FC
88
88
88
ENDCHAR
STARTCHAR LATIN
ENCODING -1
SWIDTH 480 0
DWIDTH 6 0
BBX 6 10 0 0
BITMAP
08
14
40
40
40
78
84
84
88
88
ENDCHAR
STARTCHAR LATIN
ENCODING -1
SWIDTH 480 0
DWIDTH 6 0
BBX 6 7 0 0
BITMAP
44
7C
44
FC
88
88
88
ENDCHAR
STARTCHAR LATIN
ENCODING -1
SWIDTH 480 0
DWIDTH 6 0
BBX 6 8 0 0
BITMAP
40
70
40
78
84
84
88
88
ENDCHAR
STARTCHAR LATIN
ENCODING -1
SWIDTH 480 0
DWIDTH 6 0
BBX 5 10 1 0
BITMAP
28
50
00
70
20
20
40
40
40
E0
ENDCHAR
STARTCHAR LATIN
ENCODING -1
SWIDTH 480 0
DWIDTH 6 0
BBX 4 9 2 0
BITMAP
50
A0
00
00
40
40
80
80
40
ENDCHAR
STARTCHAR LATIN
ENCODING -1
SWIDTH 480 0
DWIDTH 6 0
BBX 5 10 1 0
BITMAP
38
00
00
70
20
20
40
40
40
E0
ENDCHAR
STARTCHAR LATIN
ENCODING -1
SWIDTH 480 0
DWIDTH 6 0
BBX 4 8 2 0
BITMAP
70
00
00
40
40
80
80
40
ENDCHAR
STARTCHAR LATIN
ENCODING -1
SWIDTH 480 0
DWIDTH 6 0
BBX 4 9 1 -2
BITMAP
70
20
20
40
40
40
E0
40
20
ENDCHAR
STARTCHAR LATIN
ENCODING -1
SWIDTH 480 0
DWIDTH 6 0
BBX 3 10 2 -2
BITMAP
20
00
00
40
40
80
80
40
40
20
ENDCHAR
STARTCHAR LATIN
ENCODING -1
SWIDTH 480 0
DWIDTH 6 0
BBX 4 10 1 0
BITMAP
10
00
00
70
20
20
40
40
40
E0
ENDCHAR
STARTCHAR LATIN
ENCODING -1
SWIDTH 480 0
DWIDTH 6 0
BBX 2 5 2 0
BITMAP
40
40
80
80
40
ENDCHAR
STARTCHAR LATIN
ENCODING -1
SWIDTH 480 0
DWIDTH 6 0
BBX 6 10 0 0
BITMAP
08
14
00
04
04
04
08
08
88
70
ENDCHAR
STARTCHAR LATIN
ENCODING -1
SWIDTH 480 0
DWIDTH 6 0
BBX 5 11 1 -2
BITMAP
10
28
00
00
20
20
40
40
40
40
80
ENDCHAR
STARTCHAR LATIN
ENCODING -1
SWIDTH 480 0
DWIDTH 6 0
BBX 6 9 0 -2
BITMAP
44
48
50
E0
A0
90
88
20
40
ENDCHAR
STARTCHAR LATIN
ENCODING -1
SWIDTH 480 0
DWIDTH 6 0
BBX 5 10 1 -2
BITMAP
20
20
40
48
50
E0
A0
90
20
40
ENDCHAR
STARTCHAR LATIN
ENCODING -1
SWIDTH 480 0
DWIDTH 6 0
BBX 5 5 1 0
BITMAP
48
50
E0
A0
90
ENDCHAR
STARTCHAR LATIN
ENCODING -1
SWIDTH 480 0
DWIDTH 6 0
BBX 5 10 0 0
BITMAP
10
20
00
40
40
40
80
80
80
F8
ENDCHAR
STARTCHAR LATIN
ENCODING -1
SWIDTH 480 0
DWIDTH 6 0
BBX 5 10 1 0
BITMAP
08
10
20
20
40
40
40
80
80
60
ENDCHAR
STARTCHAR LATIN
ENCODING -1
SWIDTH 480 0
DWIDTH 6 0
BBX 5 9 0 -2
BITMAP
40
40
40
80
80
80
F8
20
40
ENDCHAR
STARTCHAR LATIN
ENCODING -1
SWIDTH 480 0
DWIDTH 6 0
BBX 3 10 1 -2
BITMAP
20
20
40
40
40
80
80
60
40
80
ENDCHAR
STARTCHAR LATIN
ENCODING -1
SWIDTH 480 0
DWIDTH 6 0
BBX 5 7 0 0
BITMAP
48
50
40
80
80
80
F8
ENDCHAR
STARTCHAR LATIN
ENCODING -1
SWIDTH 480 0
DWIDTH 6 0
BBX 5 8 1 0
BITMAP
28
30
40
40
40
80
80
60
ENDCHAR
STARTCHAR LATIN
ENCODING -1
SWIDTH 480 0
DWIDTH 6 0
BBX 5 7 0 0
BITMAP
40
50
60
C0
80
80
F8
ENDCHAR
STARTCHAR LATIN
ENCODING -1
SWIDTH 480 0
DWIDTH 6 0
BBX 4 8 0 0
BITMAP
10
10
20
30
C0
40
40
30
ENDCHAR
STARTCHAR LATIN
ENCODING -1
SWIDTH 480 0
DWIDTH 6 0
BBX 6 10 0 0
BITMAP
04
08
00
44
44
64
94
88
88
88
ENDCHAR
STARTCHAR LATIN
ENCODING -1
SWIDTH 480 0
DWIDTH 6 0
BBX 6 9 0 0
BITMAP
04
08
00
00
78
44
84
88
88
ENDCHAR
STARTCHAR LATIN
ENCODING -1
SWIDTH 480 0
DWIDTH 6 0
BBX 6 9 0 -2
BITMAP
44
44
64
94
88
88
88
20
40
ENDCHAR
STARTCHAR LATIN
ENCODING -1
SWIDTH 480 0
DWIDTH 6 0
BBX 6 7 0 -2
BITMAP
78
44
84
88
88
20
40
ENDCHAR
STARTCHAR LATIN
ENCODING -1
SWIDTH 480 0
DWIDTH 6 0
BBX 6 10 0 0
BITMAP
28
10
00
44
44
64
94
88
88
88
ENDCHAR
STARTCHAR LATIN
ENCODING -1
SWIDTH 480 0
DWIDTH 6 0
BBX 6 9 0 0
BITMAP
14
08
00
00
78
44
84
88
88
ENDCHAR
STARTCHAR LATIN
ENCODING -1
SWIDTH 480 0
DWIDTH 6 0
BBX 6 9 0 -2
BITMAP
44
44
64
94
88
88
88
08
10
ENDCHAR
STARTCHAR LATIN
ENCODING -1
SWIDTH 480 0
DWIDTH 6 0
BBX 6 7 0 -2
BITMAP
78
44
84
88
88
08
10
ENDCHAR
STARTCHAR LATIN
ENCODING -1
SWIDTH 480 0
DWIDTH 6 0
BBX 6 10 0 0
BITMAP
3C
00
00
38
44
44
84
88
88
70
ENDCHAR
STARTCHAR LATIN
ENCODING -1
SWIDTH 480 0
DWIDTH 6 0
BBX 6 8 0 0
BITMAP
3C
00
00
38
44
84
88
70
ENDCHAR
STARTCHAR LATIN
ENCODING -1
SWIDTH 480 0
DWIDTH 6 0
BBX 6 10 0 0
BITMAP
24
48
00
38
44
44
84
88
88
70
ENDCHAR
STARTCHAR LATIN
ENCODING -1
SWIDTH 480 0
DWIDTH 6 0
BBX 6 9 0 0
BITMAP
24
48
00
00
38
44
84
88
70
ENDCHAR
STARTCHAR LATIN
ENCODING -1
SWIDTH 480 0
DWIDTH 6 0
BBX 6 7 0 0
BITMAP
3C
48
48
9C
90
90
7C
ENDCHAR
STARTCHAR LATIN
ENCODING -1
SWIDTH 480 0
DWIDTH 6 0
BBX 6 5 0 0
BITMAP
28
54
98
A0
58
ENDCHAR
STARTCHAR LATIN
ENCODING -1
SWIDTH 480 0
DWIDTH 6 0
BBX 6 10 0 0
BITMAP
04
08
00
78
44
44
88
F0
90
88
ENDCHAR
STARTCHAR LATIN
ENCODING -1
SWIDTH 480 0
DWIDTH 6 0
BBX 6 9 0 0
BITMAP
04
08
00
00
5C
60
80
80
80
ENDCHAR
STARTCHAR LATIN
ENCODING -1
SWIDTH 480 0
DWIDTH 6 0
BBX 6 9 0 -2
BITMAP
78
44
44
88
F0
90
88
20
40
ENDCHAR
STARTCHAR LATIN
ENCODING -1
SWIDTH 480 0
DWIDTH 6 0
BBX 6 7 0 -2
BITMAP
5C
60
80
80
80
40
80
ENDCHAR
STARTCHAR LATIN
ENCODING -1
SWIDTH 480 0
DWIDTH 6 0
BBX 6 10 0 0
BITMAP
28
10
00
78
44
44
88
F0
90
88
ENDCHAR
STARTCHAR LATIN
ENCODING -1
SWIDTH 480 0
DWIDTH 6 0
BBX 6 9 0 0
BITMAP
14
08
00
00
5C
60
80
80
80
ENDCHAR
STARTCHAR LATIN
ENCODING -1
SWIDTH 480 0
DWIDTH 6 0
BBX 6 10 0 0
BITMAP
04
08
00
3C
40
40
30
08
08
F0
ENDCHAR
STARTCHAR LATIN
ENCODING -1
SWIDTH 480 0
DWIDTH 6 0
BBX 6 9 0 0
BITMAP
04
08
00
00
3C
40
30
08
F0
ENDCHAR
STARTCHAR LATIN
ENCODING -1
SWIDTH 480 0
DWIDTH 6 0
BBX 6 10 0 0
BITMAP
08
14
00
3C
40
40
30
08
08
F0
ENDCHAR
STARTCHAR LATIN
ENCODING -1
SWIDTH 480 0
DWIDTH 6 0
BBX 6 9 0 0
BITMAP
08
14
00
00
3C
40
30
08
F0
ENDCHAR
STARTCHAR LATIN
ENCODING -1
SWIDTH 480 0
DWIDTH 6 0
BBX 6 9 0 -2
BITMAP
3C
40
40
30
08
08
F0
20
40
ENDCHAR
STARTCHAR LATIN
ENCODING -1
SWIDTH 480 0
DWIDTH 6 0
BBX 6 7 0 -2
BITMAP
3C
40
30
08
F0
20
40
ENDCHAR
STARTCHAR LATIN
ENCODING -1
SWIDTH 480 0
DWIDTH 6 0
BBX 6 10 0 0
BITMAP
14
08
00
3C
40
40
30
08
08
F0
ENDCHAR
STARTCHAR LATIN
ENCODING -1
SWIDTH 480 0
DWIDTH 6 0
BBX 6 9 0 0
BITMAP
14
08
00
00
3C
40
30
08
F0
ENDCHAR
STARTCHAR LATIN
ENCODING -1
SWIDTH 480 0
DWIDTH 6 0
BBX 5 9 1 -2
BITMAP
F8
20
20
40
40
40
40
40
80
ENDCHAR
STARTCHAR LATIN
ENCODING -1
SWIDTH 480 0
DWIDTH 6 0
BBX 3 10 1 -2
BITMAP
20
20
40
E0
40
80
80
60
40
80
ENDCHAR
STARTCHAR LATIN
ENCODING -1
SWIDTH 480 0
DWIDTH 6 0
BBX 5 10 1 0
BITMAP
50
20
00
F8
20
20
40
40
40
40
ENDCHAR
STARTCHAR LATIN
ENCODING -1
SWIDTH 480 0
DWIDTH 6 0
BBX 5 9 1 0
BITMAP
08
30
20
40
E0
40
80
80
60
ENDCHAR
STARTCHAR LATIN
ENCODING -1
SWIDTH 480 0
DWIDTH 6 0
BBX 5 7 1 0
BITMAP
F8
20
20
F0
40
40
40
ENDCHAR
STARTCHAR LATIN
ENCODING -1
SWIDTH 480 0
DWIDTH 6 0
BBX 5 8 0 0
BITMAP
10
10
78
20
F0
40
40
30
ENDCHAR
STARTCHAR LATIN
ENCODING -1
SWIDTH 480 0
DWIDTH 6 0
BBX 6 10 0 0
BITMAP
14
28
00
44
44
44
84
88
88
70
ENDCHAR
STARTCHAR LATIN
ENCODING -1
SWIDTH 480 0
DWIDTH 6 0
BBX 6 9 0 0
BITMAP
14
28
00
00
44
44
84
88
78
ENDCHAR
STARTCHAR LATIN
ENCODING -1
SWIDTH 480 0
DWIDTH 6 0
BBX 6 10 0 0
BITMAP
3C
00
00
44
44
44
84
88
88
70
ENDCHAR
STARTCHAR LATIN
ENCODING -1
SWIDTH 480 0
DWIDTH 6 0
BBX 6 8 0 0
BITMAP
3C
00
00
44
44
84
88
78
ENDCHAR
STARTCHAR LATIN
ENCODING -1
SWIDTH 480 0
DWIDTH 6 0
BBX 6 10 0 0
BITMAP
24
18
00
44
44
44
84
88
88
70
ENDCHAR
STARTCHAR LATIN
ENCODING -1
SWIDTH 480 0
DWIDTH 6 0
BBX 6 9 0 0
BITMAP
24
18
00
00
44
44
84
88
78
ENDCHAR
STARTCHAR LATIN
ENCODING -1
SWIDTH 480 0
DWIDTH 6 0
BBX 6 10 0 0
BITMAP
10
28
10
44
44
44
84
88
88
70
ENDCHAR
STARTCHAR LATIN
ENCODING -1
SWIDTH 480 0
DWIDTH 6 0
BBX 6 10 0 0
BITMAP
08
14
08
00
00
44
44
84
88
78
ENDCHAR
STARTCHAR LATIN
ENCODING -1
SWIDTH 480 0
DWIDTH 6 0
BBX 6 10 0 0
BITMAP
24
48
00
44
44
44
84
88
88
70
ENDCHAR
STARTCHAR LATIN
ENCODING -1
SWIDTH 480 0
DWIDTH 6 0
BBX 6 9 0 0
BITMAP
24
48
00
00
44
44
84
88
78
ENDCHAR
STARTCHAR LATIN
ENCODING -1
SWIDTH 480 0
DWIDTH 6 0
BBX 6 9 0 -2
BITMAP
44
44
44
84
88
88
70
20
10
ENDCHAR
STARTCHAR LATIN
ENCODING -1
SWIDTH 480 0
DWIDTH 6 0
BBX 6 7 0 -2
BITMAP
44
44
84
88
78
08
04
ENDCHAR
STARTCHAR LATIN
ENCODING -1
SWIDTH 480 0
DWIDTH 6 0
BBX 6 10 0 0
BITMAP
10
28
00
44
44
44
84
A8
D8
88
ENDCHAR
STARTCHAR LATIN
ENCODING -1
SWIDTH 480 0
DWIDTH 6 0
BBX 6 9 0 0
BITMAP
08
14
00
00
44
44
A4
D8
88
ENDCHAR
STARTCHAR LATIN
ENCODING -1
SWIDTH 480 0
DWIDTH 6 0
BBX 5 10 1 0
BITMAP
20
50
00
88
88
50
60
40
40
40
ENDCHAR
STARTCHAR LATIN
ENCODING -1
SWIDTH 480 0
DWIDTH 6 0
BBX 6 11 0 -2
BITMAP
08
14
00
00
44
44
84
88
78
08
70
ENDCHAR
STARTCHAR LATIN
ENCODING -1
SWIDTH 480 0
DWIDTH 6 0
BBX 5 10 1 0
BITMAP
28
00
00
88
88
50
60
40
40
40
ENDCHAR
STARTCHAR LATIN
ENCODING -1
SWIDTH 480 0
DWIDTH 6 0
BBX 6 10 0 0
BITMAP
04
08
00
7C
04
08
30
40
80
F8
ENDCHAR
STARTCHAR LATIN
ENCODING -1
SWIDTH 480 0
DWIDTH 6 0
BBX 6 9 0 0
BITMAP
04
08
00
00
7C
08
30
40
F8
ENDCHAR
STARTCHAR LATIN
ENCODING -1
SWIDTH 480 0
DWIDTH 6 0
BBX 6 10 0 0
BITMAP
08
00
00
7C
04
08
30
40
80
F8
ENDCHAR
STARTCHAR LATIN
ENCODING -1
SWIDTH 480 0
DWIDTH 6 0
BBX 6 8 0 0
BITMAP
08
00
00
7C
08
30
40
F8
ENDCHAR
STARTCHAR LATIN
ENCODING -1
SWIDTH 480 0
DWIDTH 6 0
BBX 6 10 0 0
BITMAP
28
10
00
7C
04
08
30
40
80
F8
ENDCHAR
STARTCHAR LATIN
ENCODING -1
SWIDTH 480 0
DWIDTH 6 0
BBX 6 9 0 0
BITMAP
14
08
00
00
7C
08
30
40
F8
ENDCHAR
STARTCHAR LATIN
ENCODING -1
SWIDTH 480 0
DWIDTH 6 0
BBX 6 9 0 -2
BITMAP
3C
40
40
30
08
08
F0
20
40
ENDCHAR
STARTCHAR LATIN
ENCODING -1
SWIDTH 480 0
DWIDTH 6 0
BBX 6 7 0 -2
BITMAP
3C
40
30
08
F0
20
40
ENDCHAR
STARTCHAR LATIN
ENCODING -1
SWIDTH 480 0
DWIDTH 6 0
BBX 5 9 1 -2
BITMAP
F8
20
20
40
40
40
40
40
80
ENDCHAR
STARTCHAR LATIN
ENCODING -1
SWIDTH 480 0
DWIDTH 6 0
BBX 4 10 0 -2
BITMAP
20
20
20
F0
40
40
40
30
20
40
ENDCHAR
STARTCHAR CARON
ENCODING -1
SWIDTH 480 0
DWIDTH 6 0
BBX 3 2 1 8
BITMAP
A0
40
ENDCHAR
STARTCHAR BREVE
ENCODING -1
SWIDTH 480 0
DWIDTH 6 0
BBX 4 2 1 8
BITMAP
90
60
ENDCHAR
STARTCHAR DOT
ENCODING -1
SWIDTH 480 0
DWIDTH 6 0
BBX 1 1 2 8
BITMAP
80
ENDCHAR
STARTCHAR OGONEK
ENCODING -1
SWIDTH 480 0
DWIDTH 6 0
BBX 2 2 3 -2
BITMAP
80
40
ENDCHAR
STARTCHAR DOUBLE
ENCODING -1
SWIDTH 480 0
DWIDTH 6 0
BBX 5 2 0 8
BITMAP
48
90
ENDCHAR
STARTCHAR GREEK
ENCODING -1
SWIDTH 480 0
DWIDTH 6 0
BBX 1 2 3 -2
BITMAP
80
80
ENDCHAR
STARTCHAR GREEK
ENCODING -1
SWIDTH 480 0
DWIDTH 6 0
BBX 3 6 1 -1
BITMAP
20
00
00
00
40
80
ENDCHAR
STARTCHAR GREEK
ENCODING -1
SWIDTH 480 0
DWIDTH 6 0
BBX 2 2 3 8
BITMAP
40
80
ENDCHAR
STARTCHAR GREEK
ENCODING -1
SWIDTH 480 0
DWIDTH 6 0
BBX 5 3 1 7
BITMAP
10
20
88
ENDCHAR
STARTCHAR GREEK
ENCODING -1
SWIDTH 480 0
DWIDTH 6 0
BBX 6 8 0 0
BITMAP
40
B8
44
44
44
F8
88
88
ENDCHAR
STARTCHAR GREEK
ENCODING -1
SWIDTH 480 0
DWIDTH 6 0
BBX 6 8 0 0
BITMAP
40
BC
40
40
F0
80
80
F8
ENDCHAR
STARTCHAR GREEK
ENCODING -1
SWIDTH 480 0
DWIDTH 6 0
BBX 6 8 0 0
BITMAP
40
84
44
44
FC
88
88
88
ENDCHAR
STARTCHAR GREEK
ENCODING -1
SWIDTH 480 0
DWIDTH 6 0
BBX 5 8 1 0
BITMAP
40
B8
10
10
20
20
20
70
ENDCHAR
STARTCHAR GREEK
ENCODING -1
SWIDTH 480 0
DWIDTH 6 0
BBX 6 8 0 0
BITMAP
40
B8
44
44
84
88
88
70
ENDCHAR
STARTCHAR GREEK
ENCODING -1
SWIDTH 480 0
DWIDTH 6 0
BBX 6 8 0 0
BITMAP
40
84
44
28
30
20
20
20
ENDCHAR
STARTCHAR GREEK
ENCODING -1
SWIDTH 480 0
DWIDTH 6 0
BBX 6 8 0 0
BITMAP
40
B8
44
44
84
88
50
D8
ENDCHAR
STARTCHAR GREEK
ENCODING -1
SWIDTH 480 0
DWIDTH 6 0
BBX 4 10 2 0
BITMAP
10
20
00
50
00
40
40
80
80
40
ENDCHAR
STARTCHAR GREEK
ENCODING -1
SWIDTH 480 0
DWIDTH 6 0
BBX 6 7 0 0
BITMAP
38
44
44
44
F8
88
88
ENDCHAR
STARTCHAR GREEK
ENCODING -1
SWIDTH 480 0
DWIDTH 6 0
BBX 6 7 0 0
BITMAP
78
44
44
F8
88
88
F0
ENDCHAR
STARTCHAR GREEK
ENCODING -1
SWIDTH 480 0
DWIDTH 6 0
BBX 5 7 0 0
BITMAP
10
10
28
48
48
88
F8
ENDCHAR
STARTCHAR GREEK
ENCODING -1
SWIDTH 480 0
DWIDTH 6 0
BBX 6 7 0 0
BITMAP
7C
40
40
F0
80
80
F8
ENDCHAR
STARTCHAR GREEK
ENCODING -1
SWIDTH 480 0
DWIDTH 6 0
BBX 6 7 0 0
BITMAP
7C
04
08
30
40
80
F8
ENDCHAR
STARTCHAR GREEK
ENCODING -1
SWIDTH 480 0
DWIDTH 6 0
BBX 6 7 0 0
BITMAP
44
44
44
FC
88
88
88
ENDCHAR
STARTCHAR GREEK
ENCODING -1
SWIDTH 480 0
DWIDTH 6 0
BBX 4 7 1 0
BITMAP
70
20
20
40
40
40
E0
ENDCHAR
STARTCHAR GREEK
ENCODING -1
SWIDTH 480 0
DWIDTH 6 0
BBX 6 7 0 0
BITMAP
44
48
50
E0
A0
90
88
ENDCHAR
STARTCHAR GREEK
ENCODING -1
SWIDTH 480 0
DWIDTH 6 0
BBX 5 7 0 0
BITMAP
10
10
28
48
48
88
88
ENDCHAR
STARTCHAR GREEK
ENCODING -1
SWIDTH 480 0
DWIDTH 6 0
BBX 6 7 0 0
BITMAP
44
6C
54
84
88
88
88
ENDCHAR
STARTCHAR GREEK
ENCODING -1
SWIDTH 480 0
DWIDTH 6 0
BBX 6 7 0 0
BITMAP
44
44
64
94
88
88
88
ENDCHAR
STARTCHAR GREEK
ENCODING -1
SWIDTH 480 0
DWIDTH 6 0
BBX 6 7 0 0
BITMAP
7C
00
00
78
00
00
F8
ENDCHAR
STARTCHAR GREEK
ENCODING -1
SWIDTH 480 0
DWIDTH 6 0
BBX 6 7 0 0
BITMAP
38
44
44
84
88
88
70
ENDCHAR
STARTCHAR GREEK
ENCODING -1
SWIDTH 480 0
DWIDTH 6 0
BBX 6 7 0 0
BITMAP
7C
44
44
84
88
88
88
ENDCHAR
STARTCHAR GREEK
ENCODING -1
SWIDTH 480 0
DWIDTH 6 0
BBX 6 7 0 0
BITMAP
78
44
44
88
F0
80
80
ENDCHAR
STARTCHAR GREEK
ENCODING -1
SWIDTH 480 0
DWIDTH 6 0
BBX 5 7 1 0
BITMAP
F8
20
20
40
40
40
40
ENDCHAR
STARTCHAR GREEK
ENCODING -1
SWIDTH 480 0
DWIDTH 6 0
BBX 5 7 1 0
BITMAP
88
88
50
60
40
40
40
ENDCHAR
STARTCHAR GREEK
ENCODING -1
SWIDTH 480 0
DWIDTH 6 0
BBX 6 7 0 0
BITMAP
44
44
28
30
50
88
88
ENDCHAR
STARTCHAR GREEK
ENCODING -1
SWIDTH 480 0
DWIDTH 6 0
BBX 5 7 1 0
BITMAP
A8
A8
B0
60
40
40
40
ENDCHAR
STARTCHAR GREEK
ENCODING -1
SWIDTH 480 0
DWIDTH 6 0
BBX 5 10 1 0
BITMAP
28
00
00
70
20
20
40
40
40
E0
ENDCHAR
STARTCHAR GREEK
ENCODING -1
SWIDTH 480 0
DWIDTH 6 0
BBX 5 10 1 0
BITMAP
28
00
00
88
88
50
60
40
40
40
ENDCHAR
STARTCHAR GREEK
ENCODING -1
SWIDTH 480 0
DWIDTH 6 0
BBX 6 9 0 0
BITMAP
04
08
00
00
34
48
88
90
68
ENDCHAR
STARTCHAR GREEK
ENCODING -1
SWIDTH 480 0
DWIDTH 6 0
BBX 6 9 0 0
BITMAP
04
08
00
00
3C
40
70
80
78
ENDCHAR
STARTCHAR GREEK
ENCODING -1
SWIDTH 480 0
DWIDTH 6 0
BBX 6 11 0 -2
BITMAP
04
08
00
00
78
44
84
88
88
10
10
ENDCHAR
STARTCHAR GREEK
ENCODING -1
SWIDTH 480 0
DWIDTH 6 0
BBX 4 9 2 0
BITMAP
10
20
00
00
40
40
80
80
40
ENDCHAR
STARTCHAR GREEK
ENCODING -1
SWIDTH 480 0
DWIDTH 6 0
BBX 6 10 0 0
BITMAP
04
08
00
14
00
44
44
84
88
70
ENDCHAR
STARTCHAR GREEK
ENCODING -1
SWIDTH 480 0
DWIDTH 6 0
BBX 5 10 0 -2
BITMAP
30
48
48
50
50
88
88
B0
80
80
ENDCHAR
STARTCHAR GREEK
ENCODING -1
SWIDTH 480 0
DWIDTH 6 0
BBX 5 7 1 -2
BITMAP
88
88
50
60
40
40
40
ENDCHAR
STARTCHAR GREEK
ENCODING -1
SWIDTH 480 0
DWIDTH 6 0
BBX 6 9 0 -1
BITMAP
7C
04
08
30
40
80
80
70
08
ENDCHAR
STARTCHAR GREEK
ENCODING -1
SWIDTH 480 0
DWIDTH 6 0
BBX 6 7 0 -2
BITMAP
78
44
84
88
88
10
10
ENDCHAR
STARTCHAR GREEK
ENCODING -1
SWIDTH 480 0
DWIDTH 6 0
BBX 6 8 0 0
BITMAP
38
44
44
7C
88
88
88
70
ENDCHAR
STARTCHAR GREEK
ENCODING -1
SWIDTH 480 0
DWIDTH 6 0
BBX 2 5 2 0
BITMAP
40
40
80
80
40
ENDCHAR
STARTCHAR GREEK
ENCODING -1
SWIDTH 480 0
DWIDTH 6 0
BBX 5 5 1 0
BITMAP
48
50
E0
A0
90
ENDCHAR
STARTCHAR GREEK
ENCODING -1
SWIDTH 480 0
DWIDTH 6 0
BBX 6 8 0 0
BITMAP
20
10
08
08
18
28
44
84
ENDCHAR
STARTCHAR GREEK
ENCODING -1
SWIDTH 480 0
DWIDTH 6 0
BBX 6 7 0 -2
BITMAP
44
44
44
88
F0
80
80
ENDCHAR
STARTCHAR GREEK
ENCODING -1
SWIDTH 480 0
DWIDTH 6 0
BBX 5 5 1 0
BITMAP
88
88
88
90
60
ENDCHAR
STARTCHAR GREEK
ENCODING -1
SWIDTH 480 0
DWIDTH 6 0
BBX 6 9 0 -1
BITMAP
3C
10
20
38
40
80
80
70
08
ENDCHAR
STARTCHAR GREEK
ENCODING -1
SWIDTH 480 0
DWIDTH 6 0
BBX 6 5 0 0
BITMAP
38
44
84
88
70
ENDCHAR
STARTCHAR GREEK
ENCODING -1
SWIDTH 480 0
DWIDTH 6 0
BBX 6 7 0 -2
BITMAP
38
44
44
88
F0
80
80
ENDCHAR
STARTCHAR GREEK
ENCODING -1
SWIDTH 480 0
DWIDTH 6 0
BBX 6 6 0 -1
BITMAP
3C
40
80
80
70
08
ENDCHAR
STARTCHAR GREEK
ENCODING -1
SWIDTH 480 0
DWIDTH 6 0
BBX 6 5 0 0
BITMAP
44
44
84
88
70
ENDCHAR
STARTCHAR GREEK
ENCODING -1
SWIDTH 480 0
DWIDTH 6 0
BBX 6 7 0 -2
BITMAP
64
14
18
30
60
A0
98
ENDCHAR
STARTCHAR GREEK
ENCODING -1
SWIDTH 480 0
DWIDTH 6 0
BBX 6 9 0 -2
BITMAP
08
08
54
54
94
A8
70
20
20
ENDCHAR
STARTCHAR GREEK
ENCODING -1
SWIDTH 480 0
DWIDTH 6 0
BBX 6 5 0 0
BITMAP
28
44
84
A8
50
ENDCHAR
STARTCHAR GREEK
ENCODING -1
SWIDTH 480 0
DWIDTH 6 0
BBX 4 8 2 0
BITMAP
50
00
00
40
40
80
80
40
ENDCHAR
STARTCHAR GREEK
ENCODING -1
SWIDTH 480 0
DWIDTH 6 0
BBX 6 8 0 0
BITMAP
14
00
00
44
44
84
88
70
ENDCHAR
STARTCHAR GREEK
ENCODING -1
SWIDTH 480 0
DWIDTH 6 0
BBX 6 9 0 0
BITMAP
04
08
00
00
38
44
84
88
70
ENDCHAR
STARTCHAR GREEK
ENCODING -1
SWIDTH 480 0
DWIDTH 6 0
BBX 6 9 0 0
BITMAP
04
08
00
00
44
44
84
88
70
ENDCHAR
STARTCHAR GREEK
ENCODING -1
SWIDTH 480 0
DWIDTH 6 0
BBX 6 9 0 0
BITMAP
04
08
00
00
28
44
84
A8
50
ENDCHAR
STARTCHAR CYRILLIC
ENCODING -1
SWIDTH 480 0
DWIDTH 6 0
BBX 6 10 0 0
BITMAP
14
00
00
7C
40
40
F0
80
80
F8
ENDCHAR
STARTCHAR CYRILLIC
ENCODING -1
SWIDTH 480 0
DWIDTH 6 0
BBX 6 8 0 -1
BITMAP
F0
40
40
F8
84
84
88
10
ENDCHAR
STARTCHAR CYRILLIC
ENCODING -1
SWIDTH 480 0
DWIDTH 6 0
BBX 6 10 0 0
BITMAP
08
10
00
7C
40
40
80
80
80
80
ENDCHAR
STARTCHAR CYRILLIC
ENCODING -1
SWIDTH 480 0
DWIDTH 6 0
BBX 6 7 0 0
BITMAP
3C
40
40
F0
80
80
78
ENDCHAR
STARTCHAR CYRILLIC
ENCODING -1
SWIDTH 480 0
DWIDTH 6 0
BBX 6 7 0 0
BITMAP
3C
40
40
30
08
08
F0
ENDCHAR
STARTCHAR CYRILLIC
ENCODING -1
SWIDTH 480 0
DWIDTH 6 0
BBX 4 7 1 0
BITMAP
70
20
20
40
40
40
E0
ENDCHAR
STARTCHAR CYRILLIC
ENCODING -1
SWIDTH 480 0
DWIDTH 6 0
BBX 5 10 1 0
BITMAP
28
00
00
70
20
20
40
40
40
E0
ENDCHAR
STARTCHAR CYRILLIC
ENCODING -1
SWIDTH 480 0
DWIDTH 6 0
BBX 6 7 0 0
BITMAP
04
04
04
08
08
88
70
ENDCHAR
STARTCHAR CYRILLIC
ENCODING -1
SWIDTH 480 0
DWIDTH 6 0
BBX 6 7 0 0
BITMAP
18
28
28
48
54
54
98
ENDCHAR
STARTCHAR CYRILLIC
ENCODING -1
SWIDTH 480 0
DWIDTH 6 0
BBX 6 7 0 0
BITMAP
48
48
48
F8
94
94
98
ENDCHAR
STARTCHAR CYRILLIC
ENCODING -1
SWIDTH 480 0
DWIDTH 6 0
BBX 6 7 0 0
BITMAP
F0
40
40
F8
84
84
88
ENDCHAR
STARTCHAR CYRILLIC
ENCODING -1
SWIDTH 480 0
DWIDTH 6 0
BBX 6 10 0 0
BITMAP
08
10
00
44
48
50
E0
90
90
88
ENDCHAR
STARTCHAR CYRILLIC
ENCODING -1
SWIDTH 480 0
DWIDTH 6 0
BBX 5 10 1 0
BITMAP
48
30
00
88
88
88
70
10
10
60
ENDCHAR
STARTCHAR CYRILLIC
ENCODING -1
SWIDTH 480 0
DWIDTH 6 0
BBX 6 8 0 -1
BITMAP
44
44
44
84
88
88
F8
20
ENDCHAR
STARTCHAR CYRILLIC
ENCODING -1
SWIDTH 480 0
DWIDTH 6 0
BBX 6 7 0 0
BITMAP
38
44
44
44
F8
88
88
ENDCHAR
STARTCHAR CYRILLIC
ENCODING -1
SWIDTH 480 0
DWIDTH 6 0
BBX 5 7 0 0
BITMAP
78
40
40
F0
88
88
F0
ENDCHAR
STARTCHAR CYRILLIC
ENCODING -1
SWIDTH 480 0
DWIDTH 6 0
BBX 6 7 0 0
BITMAP
78
44
44
F8
88
88
F0
ENDCHAR
STARTCHAR CYRILLIC
ENCODING -1
SWIDTH 480 0
DWIDTH 6 0
BBX 6 7 0 0
BITMAP
7C
40
40
80
80
80
80
ENDCHAR
STARTCHAR CYRILLIC
ENCODING -1
SWIDTH 480 0
DWIDTH 6 0
BBX 6 8 0 -1
BITMAP
1C
24
24
44
48
48
FC
84
ENDCHAR
STARTCHAR CYRILLIC
ENCODING -1
SWIDTH 480 0
DWIDTH 6 0
BBX 6 7 0 0
BITMAP
7C
40
40
F0
80
80
F8
ENDCHAR
STARTCHAR CYRILLIC
ENCODING -1
SWIDTH 480 0
DWIDTH 6 0
BBX 6 7 0 0
BITMAP
54
54
54
78
A8
A8
A8
ENDCHAR
STARTCHAR CYRILLIC
ENCODING -1
SWIDTH 480 0
DWIDTH 6 0
BBX 6 7 0 0
BITMAP
78
04
04
38
08
08
F0
ENDCHAR
STARTCHAR CYRILLIC
ENCODING -1
SWIDTH 480 0
DWIDTH 6 0
BBX 6 7 0 0
BITMAP
44
44
4C
94
A8
C8
88
ENDCHAR
STARTCHAR CYRILLIC
ENCODING -1
SWIDTH 480 0
DWIDTH 6 0
BBX 6 10 0 0
BITMAP
24
18
00
44
44
4C
94
A8
C8
88
ENDCHAR
STARTCHAR CYRILLIC
ENCODING -1
SWIDTH 480 0
DWIDTH 6 0
BBX 6 7 0 0
BITMAP
44
48
50
E0
90
90
88
ENDCHAR
STARTCHAR CYRILLIC
ENCODING -1
SWIDTH 480 0
DWIDTH 6 0
BBX 6 7 0 0
BITMAP
1C
24
24
44
48
48
88
ENDCHAR
STARTCHAR CYRILLIC
ENCODING -1
SWIDTH 480 0
DWIDTH 6 0
BBX 6 7 0 0
BITMAP
44
6C
54
84
88
88
88
ENDCHAR
STARTCHAR CYRILLIC
ENCODING -1
SWIDTH 480 0
DWIDTH 6 0
BBX 6 7 0 0
BITMAP
44
44
44
FC
88
88
88
ENDCHAR
STARTCHAR CYRILLIC
ENCODING -1
SWIDTH 480 0
DWIDTH 6 0
BBX 6 7 0 0
BITMAP
38
44
44
84
88
88
70
ENDCHAR
STARTCHAR CYRILLIC
ENCODING -1
SWIDTH 480 0
DWIDTH 6 0
BBX 6 7 0 0
BITMAP
7C
44
44
84
88
88
88
ENDCHAR
STARTCHAR CYRILLIC
ENCODING -1
SWIDTH 480 0
DWIDTH 6 0
BBX 6 7 0 0
BITMAP
78
44
44
88
F0
80
80
ENDCHAR
STARTCHAR CYRILLIC
ENCODING -1
SWIDTH 480 0
DWIDTH 6 0
BBX 6 7 0 0
BITMAP
3C
40
40
80
80
80
78
ENDCHAR
STARTCHAR CYRILLIC
ENCODING -1
SWIDTH 480 0
DWIDTH 6 0
BBX 5 7 1 0
BITMAP
F8
20
20
40
40
40
40
ENDCHAR
STARTCHAR CYRILLIC
ENCODING -1
SWIDTH 480 0
DWIDTH 6 0
BBX 5 7 1 0
BITMAP
88
88
88
70
10
10
60
ENDCHAR
STARTCHAR CYRILLIC
ENCODING -1
SWIDTH 480 0
DWIDTH 6 0
BBX 6 7 0 0
BITMAP
10
38
54
B4
A8
70
20
ENDCHAR
STARTCHAR CYRILLIC
ENCODING -1
SWIDTH 480 0
DWIDTH 6 0
BBX 6 7 0 0
BITMAP
44
44
28
30
50
88
88
ENDCHAR
STARTCHAR CYRILLIC
ENCODING -1
SWIDTH 480 0
DWIDTH 6 0
BBX 6 8 0 -1
BITMAP
44
44
44
84
88
88
FC
04
ENDCHAR
STARTCHAR CYRILLIC
ENCODING -1
SWIDTH 480 0
DWIDTH 6 0
BBX 5 7 1 0
BITMAP
88
88
88
70
10
10
10
ENDCHAR
STARTCHAR CYRILLIC
ENCODING -1
SWIDTH 480 0
DWIDTH 6 0
BBX 6 7 0 0
BITMAP
54
54
54
94
A8
A8
F8
ENDCHAR
STARTCHAR CYRILLIC
ENCODING -1
SWIDTH 480 0
DWIDTH 6 0
BBX 6 8 0 -1
BITMAP
54
54
54
94
A8
A8
FC
04
ENDCHAR
STARTCHAR CYRILLIC
ENCODING -1
SWIDTH 480 0
DWIDTH 6 0
BBX 5 7 0 0
BITMAP
C0
40
40
F0
88
88
F0
ENDCHAR
STARTCHAR CYRILLIC
ENCODING -1
SWIDTH 480 0
DWIDTH 6 0
BBX 6 7 0 0
BITMAP
44
44
44
E4
98
98
E8
ENDCHAR
STARTCHAR CYRILLIC
ENCODING -1
SWIDTH 480 0
DWIDTH 6 0
BBX 5 7 0 0
BITMAP
40
40
40
F0
88
88
F0
ENDCHAR
STARTCHAR CYRILLIC
ENCODING -1
SWIDTH 480 0
DWIDTH 6 0
BBX 6 7 0 0
BITMAP
78
04
04
3C
08
08
F0
ENDCHAR
STARTCHAR CYRILLIC
ENCODING -1
SWIDTH 480 0
DWIDTH 6 0
BBX 6 7 0 0
BITMAP
48
54
54
E4
A8
A8
90
ENDCHAR
STARTCHAR CYRILLIC
ENCODING -1
SWIDTH 480 0
DWIDTH 6 0
BBX 6 7 0 0
BITMAP
3C
44
44
44
38
48
88
ENDCHAR
STARTCHAR CYRILLIC
ENCODING -1
SWIDTH 480 0
DWIDTH 6 0
BBX 6 5 0 0
BITMAP
3C
44
84
88
78
ENDCHAR
STARTCHAR CYRILLIC
ENCODING -1
SWIDTH 480 0
DWIDTH 6 0
BBX 6 9 0 0
BITMAP
04
18
20
20
78
44
84
88
70
ENDCHAR
STARTCHAR CYRILLIC
ENCODING -1
SWIDTH 480 0
DWIDTH 6 0
BBX 6 5 0 0
BITMAP
38
44
F8
88
70
ENDCHAR
STARTCHAR CYRILLIC
ENCODING -1
SWIDTH 480 0
DWIDTH 6 0
BBX 6 5 0 0
BITMAP
78
04
78
80
78
ENDCHAR
STARTCHAR CYRILLIC
ENCODING -1
SWIDTH 480 0
DWIDTH 6 0
BBX 6 8 0 0
BITMAP
38
04
04
3C
44
84
88
70
ENDCHAR
STARTCHAR CYRILLIC
ENCODING -1
SWIDTH 480 0
DWIDTH 6 0
BBX 6 5 0 0
BITMAP
38
44
F8
80
70
ENDCHAR
STARTCHAR CYRILLIC
ENCODING -1
SWIDTH 480 0
DWIDTH 6 0
BBX 6 5 0 0
BITMAP
54
54
78
A8
A8
ENDCHAR
STARTCHAR CYRILLIC
ENCODING -1
SWIDTH 480 0
DWIDTH 6 0
BBX 6 5 0 0
BITMAP
78
04
38
08
F0
ENDCHAR
STARTCHAR CYRILLIC
ENCODING -1
SWIDTH 480 0
DWIDTH 6 0
BBX 6 5 0 0
BITMAP
44
44
84
88
78
ENDCHAR
STARTCHAR CYRILLIC
ENCODING -1
SWIDTH 480 0
DWIDTH 6 0
BBX 6 9 0 0
BITMAP
24
18
00
00
44
44
84
88
78
ENDCHAR
STARTCHAR CYRILLIC
ENCODING -1
SWIDTH 480 0
DWIDTH 6 0
BBX 5 5 1 0
BITMAP
48
50
E0
90
90
ENDCHAR
STARTCHAR CYRILLIC
ENCODING -1
SWIDTH 480 0
DWIDTH 6 0
BBX 6 5 0 0
BITMAP
1C
24
24
48
88
ENDCHAR
STARTCHAR CYRILLIC
ENCODING -1
SWIDTH 480 0
DWIDTH 6 0
BBX 6 5 0 0
BITMAP
44
6C
B4
88
88
ENDCHAR
STARTCHAR CYRILLIC
ENCODING -1
SWIDTH 480 0
DWIDTH 6 0
BBX 6 5 0 0
BITMAP
44
44
FC
88
88
ENDCHAR
STARTCHAR CYRILLIC
ENCODING -1
SWIDTH 480 0
DWIDTH 6 0
BBX 6 5 0 0
BITMAP
38
44
84
88
70
ENDCHAR
STARTCHAR CYRILLIC
ENCODING -1
SWIDTH 480 0
DWIDTH 6 0
BBX 6 5 0 0
BITMAP
78
44
84
88
88
ENDCHAR
STARTCHAR CYRILLIC
ENCODING -1
SWIDTH 480 0
DWIDTH 6 0
BBX 6 7 0 -2
BITMAP
78
44
44
88
F0
80
80
ENDCHAR
STARTCHAR CYRILLIC
ENCODING -1
SWIDTH 480 0
DWIDTH 6 0
BBX 6 5 0 0
BITMAP
3C
40
80
80
78
ENDCHAR
STARTCHAR CYRILLIC
ENCODING -1
SWIDTH 480 0
DWIDTH 6 0
BBX 6 5 0 0
BITMAP
68
54
A4
A8
88
ENDCHAR
STARTCHAR CYRILLIC
ENCODING -1
SWIDTH 480 0
DWIDTH 6 0
BBX 6 7 0 -2
BITMAP
44
44
84
88
78
08
70
ENDCHAR
STARTCHAR CYRILLIC
ENCODING -1
SWIDTH 480 0
DWIDTH 6 0
BBX 6 9 0 -2
BITMAP
10
10
38
54
B4
A8
70
20
20
ENDCHAR
STARTCHAR CYRILLIC
ENCODING -1
SWIDTH 480 0
DWIDTH 6 0
BBX 6 5 0 0
BITMAP
44
28
30
50
88
ENDCHAR
STARTCHAR CYRILLIC
ENCODING -1
SWIDTH 480 0
DWIDTH 6 0
BBX 6 6 0 -1
BITMAP
44
44
84
88
7C
04
ENDCHAR
STARTCHAR CYRILLIC
ENCODING -1
SWIDTH 480 0
DWIDTH 6 0
BBX 5 5 1 0
BITMAP
88
88
78
10
10
ENDCHAR
STARTCHAR CYRILLIC
ENCODING -1
SWIDTH 480 0
DWIDTH 6 0
BBX 6 5 0 0
BITMAP
54
54
94
A8
78
ENDCHAR
STARTCHAR CYRILLIC
ENCODING -1
SWIDTH 480 0
DWIDTH 6 0
BBX 6 6 0 -1
BITMAP
54
54
94
A8
7C
04
ENDCHAR
STARTCHAR CYRILLIC
ENCODING -1
SWIDTH 480 0
DWIDTH 6 0
BBX 5 5 0 0
BITMAP
C0
40
70
88
70
ENDCHAR
STARTCHAR CYRILLIC
ENCODING -1
SWIDTH 480 0
DWIDTH 6 0
BBX 6 5 0 0
BITMAP
44
44
64
98
68
ENDCHAR
STARTCHAR CYRILLIC
ENCODING -1
SWIDTH 480 0
DWIDTH 6 0
BBX 5 5 0 0
BITMAP
40
40
70
88
70
ENDCHAR
STARTCHAR CYRILLIC
ENCODING -1
SWIDTH 480 0
DWIDTH 6 0
BBX 6 5 0 0
BITMAP
78
04
3C
08
F0
ENDCHAR
STARTCHAR CYRILLIC
ENCODING -1
SWIDTH 480 0
DWIDTH 6 0
BBX 6 5 0 0
BITMAP
48
54
E4
A8
90
ENDCHAR
STARTCHAR CYRILLIC
ENCODING -1
SWIDTH 480 0
DWIDTH 6 0
BBX 6 5 0 0
BITMAP
3C
44
3C
48
88
ENDCHAR
STARTCHAR CYRILLIC
ENCODING -1
SWIDTH 480 0
DWIDTH 6 0
BBX 6 8 0 0
BITMAP
14
00
00
38
44
F8
80
70
ENDCHAR
STARTCHAR CYRILLIC
ENCODING -1
SWIDTH 480 0
DWIDTH 6 0
BBX 6 10 0 -2
BITMAP
20
78
20
78
44
84
88
88
08
10
ENDCHAR
STARTCHAR CYRILLIC
ENCODING -1
SWIDTH 480 0
DWIDTH 6 0
BBX 6 9 0 0
BITMAP
04
08
00
00
78
04
78
80
78
ENDCHAR
STARTCHAR CYRILLIC
ENCODING -1
SWIDTH 480 0
DWIDTH 6 0
BBX 6 5 0 0
BITMAP
3C
40
F0
80
78
ENDCHAR
STARTCHAR CYRILLIC
ENCODING -1
SWIDTH 480 0
DWIDTH 6 0
BBX 6 5 0 0
BITMAP
3C
40
30
08
F0
ENDCHAR
STARTCHAR CYRILLIC
ENCODING -1
SWIDTH 480 0
DWIDTH 6 0
BBX 3 8 2 0
BITMAP
20
00
00
40
40
80
80
40
ENDCHAR
STARTCHAR CYRILLIC
ENCODING -1
SWIDTH 480 0
DWIDTH 6 0
BBX 4 8 2 0
BITMAP
50
00
00
40
40
80
80
40
ENDCHAR
STARTCHAR CYRILLIC
ENCODING -1
SWIDTH 480 0
DWIDTH 6 0
BBX 4 10 1 -2
BITMAP
10
00
00
20
20
40
40
40
40
80
ENDCHAR
STARTCHAR CYRILLIC
ENCODING -1
SWIDTH 480 0
DWIDTH 6 0
BBX 6 5 0 0
BITMAP
38
48
58
54
88
ENDCHAR
STARTCHAR CYRILLIC
ENCODING -1
SWIDTH 480 0
DWIDTH 6 0
BBX 6 5 0 0
BITMAP
48
48
F8
94
88
ENDCHAR
STARTCHAR CYRILLIC
ENCODING -1
SWIDTH 480 0
DWIDTH 6 0
BBX 6 8 0 0
BITMAP
20
78
20
78
44
84
88
88
ENDCHAR
STARTCHAR CYRILLIC
ENCODING -1
SWIDTH 480 0
DWIDTH 6 0
BBX 5 9 1 0
BITMAP
08
10
00
00
48
50
E0
90
90
ENDCHAR
STARTCHAR CYRILLIC
ENCODING -1
SWIDTH 480 0
DWIDTH 6 0
BBX 6 11 0 -2
BITMAP
24
18
00
00
44
44
84
88
78
08
70
ENDCHAR
STARTCHAR CYRILLIC
ENCODING -1
SWIDTH 480 0
DWIDTH 6 0
BBX 6 7 0 -2
BITMAP
44
44
84
88
F8
20
20
ENDCHAR
STARTCHAR CYRILLIC
ENCODING -1
SWIDTH 480 0
DWIDTH 6 0
BBX 6 8 0 0
BITMAP
04
7C
40
40
80
80
80
80
ENDCHAR
STARTCHAR CYRILLIC
ENCODING -1
SWIDTH 480 0
DWIDTH 6 0
BBX 6 6 0 0
BITMAP
04
7C
40
80
80
80
ENDCHAR
STARTCHAR HEBREW
ENCODING -1
SWIDTH 480 0
DWIDTH 6 0
BBX 6 5 0 0
BITMAP
44
24
78
90
88
ENDCHAR
STARTCHAR HEBREW
ENCODING -1
SWIDTH 480 0
DWIDTH 6 0
BBX 5 5 0 0
BITMAP
70
08
08
10
F8
ENDCHAR
STARTCHAR HEBREW
ENCODING -1
SWIDTH 480 0
DWIDTH 6 0
BBX 5 5 0 0
BITMAP
70
08
08
10
E8
ENDCHAR
STARTCHAR HEBREW
ENCODING -1
SWIDTH 480 0
DWIDTH 6 0
BBX 5 5 1 0
BITMAP
F8
10
10
20
20
ENDCHAR
STARTCHAR HEBREW
ENCODING -1
SWIDTH 480 0
DWIDTH 6 0
BBX 6 5 0 0
BITMAP
78
04
84
88
88
ENDCHAR
STARTCHAR HEBREW
ENCODING -1
SWIDTH 480 0
DWIDTH 6 0
BBX 2 5 2 0
BITMAP
40
40
80
80
80
ENDCHAR
STARTCHAR HEBREW
ENCODING -1
SWIDTH 480 0
DWIDTH 6 0
BBX 5 5 1 0
BITMAP
F8
08
30
40
40
ENDCHAR
STARTCHAR HEBREW
ENCODING -1
SWIDTH 480 0
DWIDTH 6 0
BBX 6 5 0 0
BITMAP
78
44
84
88
88
ENDCHAR
STARTCHAR HEBREW
ENCODING -1
SWIDTH 480 0
DWIDTH 6 0
BBX 6 5 0 0
BITMAP
58
44
84
88
70
ENDCHAR
STARTCHAR HEBREW
ENCODING -1
SWIDTH 480 0
DWIDTH 6 0
BBX 2 3 2 2
BITMAP
40
40
80
ENDCHAR
STARTCHAR HEBREW
ENCODING -1
SWIDTH 480 0
DWIDTH 6 0
BBX 5 7 1 -2
BITMAP
F0
08
08
08
10
10
10
ENDCHAR
STARTCHAR HEBREW
ENCODING -1
SWIDTH 480 0
DWIDTH 6 0
BBX 6 5 0 0
BITMAP
78
04
04
08
F0
ENDCHAR
STARTCHAR HEBREW
ENCODING -1
SWIDTH 480 0
DWIDTH 6 0
BBX 5 6 1 0
BITMAP
80
F8
08
30
40
80
ENDCHAR
STARTCHAR HEBREW
ENCODING -1
SWIDTH 480 0
DWIDTH 6 0
BBX 6 5 0 0
BITMAP
78
44
84
88
F8
ENDCHAR
STARTCHAR HEBREW
ENCODING -1
SWIDTH 480 0
DWIDTH 6 0
BBX 6 5 0 0
BITMAP
58
24
44
88
B8
ENDCHAR
STARTCHAR HEBREW
ENCODING -1
SWIDTH 480 0
DWIDTH 6 0
BBX 2 7 2 -2
BITMAP
40
40
40
80
80
80
80
ENDCHAR
STARTCHAR HEBREW
ENCODING -1
SWIDTH 480 0
DWIDTH 6 0
BBX 6 5 0 0
BITMAP
78
04
04
08
F8
ENDCHAR
STARTCHAR HEBREW
ENCODING -1
SWIDTH 480 0
DWIDTH 6 0
BBX 6 5 0 0
BITMAP
78
44
84
88
70
ENDCHAR
STARTCHAR HEBREW
ENCODING -1
SWIDTH 480 0
DWIDTH 6 0
BBX 6 5 0 0
BITMAP
44
44
44
48
F0
ENDCHAR
STARTCHAR HEBREW
ENCODING -1
SWIDTH 480 0
DWIDTH 6 0
BBX 5 7 1 -2
BITMAP
F0
88
68
08
10
10
10
ENDCHAR
STARTCHAR HEBREW
ENCODING -1
SWIDTH 480 0
DWIDTH 6 0
BBX 6 5 0 0
BITMAP
78
44
24
08
F0
ENDCHAR
STARTCHAR HEBREW
ENCODING -1
SWIDTH 480 0
DWIDTH 6 0
BBX 5 7 1 -2
BITMAP
88
48
30
20
40
40
40
ENDCHAR
STARTCHAR HEBREW
ENCODING -1
SWIDTH 480 0
DWIDTH 6 0
BBX 6 5 0 0
BITMAP
44
24
18
10
F8
ENDCHAR
STARTCHAR HEBREW
ENCODING -1
SWIDTH 480 0
DWIDTH 6 0
BBX 6 7 0 -2
BITMAP
7C
04
44
48
90
80
80
ENDCHAR
STARTCHAR HEBREW
ENCODING -1
SWIDTH 480 0
DWIDTH 6 0
BBX 5 5 1 0
BITMAP
F0
08
08
10
10
ENDCHAR
STARTCHAR HEBREW
ENCODING -1
SWIDTH 480 0
DWIDTH 6 0
BBX 6 5 0 0
BITMAP
54
54
A4
C8
F0
ENDCHAR
STARTCHAR HEBREW
ENCODING -1
SWIDTH 480 0
DWIDTH 6 0
BBX 6 5 0 0
BITMAP
78
24
44
48
88
ENDCHAR
STARTCHAR LATIN
ENCODING -1
SWIDTH 480 0
DWIDTH 6 0
BBX 6 10 0 0
BITMAP
08
00
00
78
44
44
F8
88
88
F0
ENDCHAR
STARTCHAR LATIN
ENCODING -1
SWIDTH 480 0
DWIDTH 6 0
BBX 6 10 0 0
BITMAP
10
00
20
20
40
78
44
84
88
70
ENDCHAR
STARTCHAR LATIN
ENCODING -1
SWIDTH 480 0
DWIDTH 6 0
BBX 6 10 0 0
BITMAP
08
00
00
78
44
44
84
88
88
F0
ENDCHAR
STARTCHAR LATIN
ENCODING -1
SWIDTH 480 0
DWIDTH 6 0
BBX 6 10 0 0
BITMAP
04
00
04
04
04
3C
48
88
88
78
ENDCHAR
STARTCHAR LATIN
ENCODING -1
SWIDTH 480 0
DWIDTH 6 0
BBX 6 10 0 0
BITMAP
08
00
00
7C
40
40
F0
80
80
80
ENDCHAR
STARTCHAR LATIN
ENCODING -1
SWIDTH 480 0
DWIDTH 6 0
BBX 6 12 0 -2
BITMAP
04
00
0C
10
10
10
78
20
20
20
20
C0
ENDCHAR
STARTCHAR LATIN
ENCODING -1
SWIDTH 480 0
DWIDTH 6 0
BBX 6 10 0 0
BITMAP
08
00
00
44
6C
54
84
88
88
88
ENDCHAR
STARTCHAR LATIN
ENCODING -1
SWIDTH 480 0
DWIDTH 6 0
BBX 6 8 0 0
BITMAP
08
00
00
68
54
A4
A8
88
ENDCHAR
STARTCHAR LATIN
ENCODING -1
SWIDTH 480 0
DWIDTH 6 0
BBX 6 10 0 0
BITMAP
08
00
00
78
44
44
88
F0
80
80
ENDCHAR
STARTCHAR LATIN
ENCODING -1
SWIDTH 480 0
DWIDTH 6 0
BBX 6 10 0 -2
BITMAP
08
00
00
78
44
44
88
F0
80
80
ENDCHAR
STARTCHAR LATIN
ENCODING -1
SWIDTH 480 0
DWIDTH 6 0
BBX 6 10 0 0
BITMAP
08
00
00
3C
40
40
30
08
08
F0
ENDCHAR
STARTCHAR LATIN
ENCODING -1
SWIDTH 480 0
DWIDTH 6 0
BBX 6 8 0 0
BITMAP
08
00
00
3C
40
30
08
F0
ENDCHAR
STARTCHAR LATIN
ENCODING -1
SWIDTH 480 0
DWIDTH 6 0
BBX 5 10 1 0
BITMAP
10
00
00
F8
20
20
40
40
40
40
ENDCHAR
STARTCHAR LATIN
ENCODING -1
SWIDTH 480 0
DWIDTH 6 0
BBX 4 10 1 0
BITMAP
10
00
20
20
40
E0
40
80
80
60
ENDCHAR
STARTCHAR LATIN
ENCODING -1
SWIDTH 480 0
DWIDTH 6 0
BBX 6 10 0 0
BITMAP
20
10
00
44
44
44
84
A8
D8
88
ENDCHAR
STARTCHAR LATIN
ENCODING -1
SWIDTH 480 0
DWIDTH 6 0
BBX 6 9 0 0
BITMAP
04
08
00
00
44
44
A4
D8
88
ENDCHAR
STARTCHAR LATIN
ENCODING -1
SWIDTH 480 0
DWIDTH 6 0
BBX 6 10 0 0
BITMAP
08
10
00
44
44
44
84
A8
D8
88
ENDCHAR
STARTCHAR LATIN
ENCODING -1
SWIDTH 480 0
DWIDTH 6 0
BBX 6 9 0 0
BITMAP
10
08
00
00
44
44
A4
D8
88
ENDCHAR
STARTCHAR LATIN
ENCODING -1
SWIDTH 480 0
DWIDTH 6 0
BBX 6 10 0 0
BITMAP
14
00
00
44
44
44
84
A8
D8
88
ENDCHAR
STARTCHAR LATIN
ENCODING -1
SWIDTH 480 0
DWIDTH 6 0
BBX 6 8 0 0
BITMAP
14
00
00
44
44
A4
D8
88
ENDCHAR
STARTCHAR LATIN
ENCODING -1
SWIDTH 480 0
DWIDTH 6 0
BBX 5 10 1 0
BITMAP
40
20
00
88
88
50
60
40
40
40
ENDCHAR
STARTCHAR LATIN
ENCODING -1
SWIDTH 480 0
DWIDTH 6 0
BBX 6 11 0 -2
BITMAP
10
08
00
00
44
44
84
88
78
08
70
ENDCHAR
STARTCHAR HORIZONTAL
ENCODING -1
SWIDTH 480 0
DWIDTH 6 0
BBX 6 1 0 3
BITMAP
FC
ENDCHAR
STARTCHAR DOUBLE
ENCODING -1
SWIDTH 480 0
DWIDTH 6 0
BBX 6 3 0 -2
BITMAP
7C
00
F8
ENDCHAR
STARTCHAR LEFT
ENCODING -1
SWIDTH 480 0
DWIDTH 6 0
BBX 2 3 2 6
BITMAP
40
80
80
ENDCHAR
STARTCHAR RIGHT
ENCODING -1
SWIDTH 480 0
DWIDTH 6 0
BBX 2 3 1 6
BITMAP
40
40
80
ENDCHAR
STARTCHAR SINGLE
ENCODING -1
SWIDTH 480 0
DWIDTH 6 0
BBX 2 3 2 6
BITMAP
80
80
40
ENDCHAR
STARTCHAR LEFT
ENCODING -1
SWIDTH 480 0
DWIDTH 6 0
BBX 4 3 1 6
BITMAP
50
A0
A0
ENDCHAR
STARTCHAR RIGHT
ENCODING -1
SWIDTH 480 0
DWIDTH 6 0
BBX 4 3 0 6
BITMAP
50
50
A0
ENDCHAR
STARTCHAR DOUBLE
ENCODING -1
SWIDTH 480 0
DWIDTH 6 0
BBX 4 3 0 -2
BITMAP
50
50
A0
ENDCHAR
STARTCHAR DOUBLE
ENCODING -1
SWIDTH 480 0
DWIDTH 6 0
BBX 4 3 1 6
BITMAP
A0
A0
50
ENDCHAR
STARTCHAR EURO
ENCODING -1
SWIDTH 480 0
DWIDTH 6 0
BBX 6 7 0 0
BITMAP
1C
20
F8
40
F0
40
38
ENDCHAR
STARTCHAR DRACHMA
ENCODING -1
SWIDTH 480 0
DWIDTH 6 0
BBX 6 9 0 -2
BITMAP
60
50
58
94
A4
A8
F0
40
40
ENDCHAR
STARTCHAR HRYVNIA
ENCODING -1
SWIDTH 480 0
DWIDTH 6 0
BBX 6 7 0 0
BITMAP
78
04
7C
38
F8
80
78
ENDCHAR
STARTCHAR RUBLE
ENCODING -1
SWIDTH 480 0
DWIDTH 6 0
BBX 6 7 0 0
BITMAP
78
44
48
F0
80
F0
80
ENDCHAR
STARTCHAR NUMERO
ENCODING -1
SWIDTH 480 0
DWIDTH 6 0
BBX 6 7 0 0
BITMAP
50
50
58
F4
A8
A0
B8
ENDCHAR
STARTCHAR Private
ENCODING -1
SWIDTH 480 0
DWIDTH 6 0
BBX 6 8 0 0
BITMAP
20
20
40
44
48
9C
90
6C
ENDCHAR
STARTCHAR char57345
ENCODING -1
SWIDTH 480 0
DWIDTH 6 0
BBX 6 7 0 -2
BITMAP
C4
28
D0
10
8C
00
0C
ENDCHAR
STARTCHAR char57346
ENCODING -1
SWIDTH 480 0
DWIDTH 6 0
BBX 6 7 0 -2
BITMAP
C4
28
30
50
CC
40
8C
ENDCHAR
STARTCHAR char57347
ENCODING -1
SWIDTH 480 0
DWIDTH 6 0
BBX 6 10 0 -2
BITMAP
04
00
00
C8
28
30
50
C8
40
80
ENDCHAR
STARTCHAR char57348
ENCODING -1
SWIDTH 480 0
DWIDTH 6 0
BBX 6 5 0 0
BITMAP
38
44
F8
80
70
ENDCHAR
STARTCHAR char57349
ENCODING -1
SWIDTH 480 0
DWIDTH 6 0
BBX 6 7 0 0
BITMAP
7C
6C
00
20
00
88
70
ENDCHAR
STARTCHAR BATTERY
ENCODING -1
SWIDTH 480 0
DWIDTH 6 0
BBX 6 12 0 -2
BITMAP
30
CC
B4
84
84
84
84
84
84
84
84
78
ENDCHAR
STARTCHAR BATTERY
ENCODING -1
SWIDTH 480 0
DWIDTH 6 0
BBX 6 12 0 -2
BITMAP
30
CC
B4
84
84
84
84
84
84
84
CC
78
ENDCHAR
STARTCHAR BATTERY
ENCODING -1
SWIDTH 480 0
DWIDTH 6 0
BBX 6 12 0 -2
BITMAP
30
CC
B4
84
84
84
84
84
84
CC
FC
78
ENDCHAR
STARTCHAR BATTERY
ENCODING -1
SWIDTH 480 0
DWIDTH 6 0
BBX 6 12 0 -2
BITMAP
30
CC
B4
84
84
84
84
84
CC
FC
FC
78
ENDCHAR
STARTCHAR BATTERY
ENCODING -1
SWIDTH 480 0
DWIDTH 6 0
BBX 6 12 0 -2
BITMAP
30
CC
B4
84
84
84
84
CC
FC
FC
FC
78
ENDCHAR
STARTCHAR BATTERY
ENCODING -1
SWIDTH 480 0
DWIDTH 6 0
BBX 6 12 0 -2
BITMAP
30
CC
B4
84
84
84
CC
FC
FC
FC
FC
78
ENDCHAR
STARTCHAR BATTERY
ENCODING -1
SWIDTH 480 0
DWIDTH 6 0
BBX 6 12 0 -2
BITMAP
30
CC
B4
84
84
CC
FC
FC
FC
FC
FC
78
ENDCHAR
STARTCHAR BATTERY
ENCODING -1
SWIDTH 480 0
DWIDTH 6 0
BBX 6 12 0 -2
BITMAP
30
CC
B4
84
CC
FC
FC
FC
FC
FC
FC
78
ENDCHAR
STARTCHAR BATTERY
ENCODING -1
SWIDTH 480 0
DWIDTH 6 0
BBX 6 12 0 -2
BITMAP
30
CC
B4
CC
FC
FC
FC
FC
FC
FC
FC
78
ENDCHAR
STARTCHAR BATTERY
ENCODING -1
SWIDTH 480 0
DWIDTH 6 0
BBX 6 12 0 -2
BITMAP
30
CC
FC
FC
FC
FC
FC
FC
FC
FC
FC
78
ENDCHAR
STARTCHAR BATTERY
ENCODING -1
SWIDTH 480 0
DWIDTH 6 0
BBX 6 12 0 -2
BITMAP
30
CC
FC
FC
B4
FC
FC
B4
CC
FC
FC
78
ENDCHAR
STARTCHAR REPLACEMENT
ENCODING -1
SWIDTH 480 0
DWIDTH 6 0
BBX 6 11 0 -2
BITMAP
30
78
CC
F4
F4
CC
BC
FC
BC
78
30
ENDCHAR
STARTCHAR UNIMPLEMENTED
ENCODING -1
SWIDTH 480 0
DWIDTH 6 0
BBX 6 10 0 -1
BITMAP
7C
44
6C
6C
94
A4
D8
D8
88
F8
ENDCHAR
ENDFONT
